%TF.GenerationSoftware,KiCad,Pcbnew,7.0.9*%
%TF.CreationDate,2024-07-01T11:41:40-07:00*%
%TF.ProjectId,detonator,6465746f-6e61-4746-9f72-2e6b69636164,rev?*%
%TF.SameCoordinates,Original*%
%TF.FileFunction,Soldermask,Top*%
%TF.FilePolarity,Negative*%
%FSLAX46Y46*%
G04 Gerber Fmt 4.6, Leading zero omitted, Abs format (unit mm)*
G04 Created by KiCad (PCBNEW 7.0.9) date 2024-07-01 11:41:40*
%MOMM*%
%LPD*%
G01*
G04 APERTURE LIST*
G04 Aperture macros list*
%AMRoundRect*
0 Rectangle with rounded corners*
0 $1 Rounding radius*
0 $2 $3 $4 $5 $6 $7 $8 $9 X,Y pos of 4 corners*
0 Add a 4 corners polygon primitive as box body*
4,1,4,$2,$3,$4,$5,$6,$7,$8,$9,$2,$3,0*
0 Add four circle primitives for the rounded corners*
1,1,$1+$1,$2,$3*
1,1,$1+$1,$4,$5*
1,1,$1+$1,$6,$7*
1,1,$1+$1,$8,$9*
0 Add four rect primitives between the rounded corners*
20,1,$1+$1,$2,$3,$4,$5,0*
20,1,$1+$1,$4,$5,$6,$7,0*
20,1,$1+$1,$6,$7,$8,$9,0*
20,1,$1+$1,$8,$9,$2,$3,0*%
G04 Aperture macros list end*
%ADD10C,0.010000*%
%ADD11C,1.600000*%
%ADD12O,1.600000X1.600000*%
%ADD13C,3.500000*%
%ADD14RoundRect,0.402000X-0.450000X0.450000X-0.450000X-0.450000X0.450000X-0.450000X0.450000X0.450000X0*%
%ADD15O,1.654000X1.254000*%
%ADD16O,2.004000X1.304000*%
%ADD17C,1.700000*%
%ADD18R,1.700000X1.700000*%
%ADD19C,1.905000*%
%ADD20O,2.000000X1.905000*%
%ADD21R,2.000000X1.905000*%
G04 APERTURE END LIST*
%TO.C,U2*%
D10*
X140331000Y-81017000D02*
X140347000Y-81019000D01*
X140362000Y-81022000D01*
X140378000Y-81025000D01*
X140393000Y-81030000D01*
X140408000Y-81035000D01*
X140422000Y-81041000D01*
X140436000Y-81048000D01*
X140450000Y-81055000D01*
X140463000Y-81063000D01*
X140476000Y-81072000D01*
X140489000Y-81082000D01*
X140501000Y-81092000D01*
X140512000Y-81103000D01*
X140523000Y-81114000D01*
X140533000Y-81126000D01*
X140543000Y-81139000D01*
X140552000Y-81152000D01*
X140560000Y-81165000D01*
X140567000Y-81179000D01*
X140574000Y-81193000D01*
X140580000Y-81207000D01*
X140585000Y-81222000D01*
X140590000Y-81237000D01*
X140593000Y-81253000D01*
X140596000Y-81268000D01*
X140598000Y-81284000D01*
X140600000Y-81299000D01*
X140600000Y-81315000D01*
X140600000Y-84415000D01*
X138800000Y-84415000D01*
X138800000Y-81315000D01*
X138800000Y-81299000D01*
X138802000Y-81284000D01*
X138804000Y-81268000D01*
X138807000Y-81253000D01*
X138810000Y-81237000D01*
X138815000Y-81222000D01*
X138820000Y-81207000D01*
X138826000Y-81193000D01*
X138833000Y-81179000D01*
X138840000Y-81165000D01*
X138848000Y-81152000D01*
X138857000Y-81139000D01*
X138867000Y-81126000D01*
X138877000Y-81114000D01*
X138888000Y-81103000D01*
X138899000Y-81092000D01*
X138911000Y-81082000D01*
X138924000Y-81072000D01*
X138937000Y-81063000D01*
X138950000Y-81055000D01*
X138964000Y-81048000D01*
X138978000Y-81041000D01*
X138992000Y-81035000D01*
X139007000Y-81030000D01*
X139022000Y-81025000D01*
X139038000Y-81022000D01*
X139053000Y-81019000D01*
X139069000Y-81017000D01*
X139084000Y-81015000D01*
X139100000Y-81015000D01*
X140300000Y-81015000D01*
X140316000Y-81015000D01*
X140331000Y-81017000D01*
G36*
X140331000Y-81017000D02*
G01*
X140347000Y-81019000D01*
X140362000Y-81022000D01*
X140378000Y-81025000D01*
X140393000Y-81030000D01*
X140408000Y-81035000D01*
X140422000Y-81041000D01*
X140436000Y-81048000D01*
X140450000Y-81055000D01*
X140463000Y-81063000D01*
X140476000Y-81072000D01*
X140489000Y-81082000D01*
X140501000Y-81092000D01*
X140512000Y-81103000D01*
X140523000Y-81114000D01*
X140533000Y-81126000D01*
X140543000Y-81139000D01*
X140552000Y-81152000D01*
X140560000Y-81165000D01*
X140567000Y-81179000D01*
X140574000Y-81193000D01*
X140580000Y-81207000D01*
X140585000Y-81222000D01*
X140590000Y-81237000D01*
X140593000Y-81253000D01*
X140596000Y-81268000D01*
X140598000Y-81284000D01*
X140600000Y-81299000D01*
X140600000Y-81315000D01*
X140600000Y-84415000D01*
X138800000Y-84415000D01*
X138800000Y-81315000D01*
X138800000Y-81299000D01*
X138802000Y-81284000D01*
X138804000Y-81268000D01*
X138807000Y-81253000D01*
X138810000Y-81237000D01*
X138815000Y-81222000D01*
X138820000Y-81207000D01*
X138826000Y-81193000D01*
X138833000Y-81179000D01*
X138840000Y-81165000D01*
X138848000Y-81152000D01*
X138857000Y-81139000D01*
X138867000Y-81126000D01*
X138877000Y-81114000D01*
X138888000Y-81103000D01*
X138899000Y-81092000D01*
X138911000Y-81082000D01*
X138924000Y-81072000D01*
X138937000Y-81063000D01*
X138950000Y-81055000D01*
X138964000Y-81048000D01*
X138978000Y-81041000D01*
X138992000Y-81035000D01*
X139007000Y-81030000D01*
X139022000Y-81025000D01*
X139038000Y-81022000D01*
X139053000Y-81019000D01*
X139069000Y-81017000D01*
X139084000Y-81015000D01*
X139100000Y-81015000D01*
X140300000Y-81015000D01*
X140316000Y-81015000D01*
X140331000Y-81017000D01*
G37*
X153031000Y-81017000D02*
X153047000Y-81019000D01*
X153062000Y-81022000D01*
X153078000Y-81025000D01*
X153093000Y-81030000D01*
X153108000Y-81035000D01*
X153122000Y-81041000D01*
X153136000Y-81048000D01*
X153150000Y-81055000D01*
X153163000Y-81063000D01*
X153176000Y-81072000D01*
X153189000Y-81082000D01*
X153201000Y-81092000D01*
X153212000Y-81103000D01*
X153223000Y-81114000D01*
X153233000Y-81126000D01*
X153243000Y-81139000D01*
X153252000Y-81152000D01*
X153260000Y-81165000D01*
X153267000Y-81179000D01*
X153274000Y-81193000D01*
X153280000Y-81207000D01*
X153285000Y-81222000D01*
X153290000Y-81237000D01*
X153293000Y-81253000D01*
X153296000Y-81268000D01*
X153298000Y-81284000D01*
X153300000Y-81299000D01*
X153300000Y-81315000D01*
X153300000Y-84415000D01*
X151500000Y-84415000D01*
X151500000Y-81315000D01*
X151500000Y-81299000D01*
X151502000Y-81284000D01*
X151504000Y-81268000D01*
X151507000Y-81253000D01*
X151510000Y-81237000D01*
X151515000Y-81222000D01*
X151520000Y-81207000D01*
X151526000Y-81193000D01*
X151533000Y-81179000D01*
X151540000Y-81165000D01*
X151548000Y-81152000D01*
X151557000Y-81139000D01*
X151567000Y-81126000D01*
X151577000Y-81114000D01*
X151588000Y-81103000D01*
X151599000Y-81092000D01*
X151611000Y-81082000D01*
X151624000Y-81072000D01*
X151637000Y-81063000D01*
X151650000Y-81055000D01*
X151664000Y-81048000D01*
X151678000Y-81041000D01*
X151692000Y-81035000D01*
X151707000Y-81030000D01*
X151722000Y-81025000D01*
X151738000Y-81022000D01*
X151753000Y-81019000D01*
X151769000Y-81017000D01*
X151784000Y-81015000D01*
X151800000Y-81015000D01*
X153000000Y-81015000D01*
X153016000Y-81015000D01*
X153031000Y-81017000D01*
G36*
X153031000Y-81017000D02*
G01*
X153047000Y-81019000D01*
X153062000Y-81022000D01*
X153078000Y-81025000D01*
X153093000Y-81030000D01*
X153108000Y-81035000D01*
X153122000Y-81041000D01*
X153136000Y-81048000D01*
X153150000Y-81055000D01*
X153163000Y-81063000D01*
X153176000Y-81072000D01*
X153189000Y-81082000D01*
X153201000Y-81092000D01*
X153212000Y-81103000D01*
X153223000Y-81114000D01*
X153233000Y-81126000D01*
X153243000Y-81139000D01*
X153252000Y-81152000D01*
X153260000Y-81165000D01*
X153267000Y-81179000D01*
X153274000Y-81193000D01*
X153280000Y-81207000D01*
X153285000Y-81222000D01*
X153290000Y-81237000D01*
X153293000Y-81253000D01*
X153296000Y-81268000D01*
X153298000Y-81284000D01*
X153300000Y-81299000D01*
X153300000Y-81315000D01*
X153300000Y-84415000D01*
X151500000Y-84415000D01*
X151500000Y-81315000D01*
X151500000Y-81299000D01*
X151502000Y-81284000D01*
X151504000Y-81268000D01*
X151507000Y-81253000D01*
X151510000Y-81237000D01*
X151515000Y-81222000D01*
X151520000Y-81207000D01*
X151526000Y-81193000D01*
X151533000Y-81179000D01*
X151540000Y-81165000D01*
X151548000Y-81152000D01*
X151557000Y-81139000D01*
X151567000Y-81126000D01*
X151577000Y-81114000D01*
X151588000Y-81103000D01*
X151599000Y-81092000D01*
X151611000Y-81082000D01*
X151624000Y-81072000D01*
X151637000Y-81063000D01*
X151650000Y-81055000D01*
X151664000Y-81048000D01*
X151678000Y-81041000D01*
X151692000Y-81035000D01*
X151707000Y-81030000D01*
X151722000Y-81025000D01*
X151738000Y-81022000D01*
X151753000Y-81019000D01*
X151769000Y-81017000D01*
X151784000Y-81015000D01*
X151800000Y-81015000D01*
X153000000Y-81015000D01*
X153016000Y-81015000D01*
X153031000Y-81017000D01*
G37*
X165731000Y-81017000D02*
X165747000Y-81019000D01*
X165762000Y-81022000D01*
X165778000Y-81025000D01*
X165793000Y-81030000D01*
X165808000Y-81035000D01*
X165822000Y-81041000D01*
X165836000Y-81048000D01*
X165850000Y-81055000D01*
X165863000Y-81063000D01*
X165876000Y-81072000D01*
X165889000Y-81082000D01*
X165901000Y-81092000D01*
X165912000Y-81103000D01*
X165923000Y-81114000D01*
X165933000Y-81126000D01*
X165943000Y-81139000D01*
X165952000Y-81152000D01*
X165960000Y-81165000D01*
X165967000Y-81179000D01*
X165974000Y-81193000D01*
X165980000Y-81207000D01*
X165985000Y-81222000D01*
X165990000Y-81237000D01*
X165993000Y-81253000D01*
X165996000Y-81268000D01*
X165998000Y-81284000D01*
X166000000Y-81299000D01*
X166000000Y-81315000D01*
X166000000Y-84415000D01*
X164200000Y-84415000D01*
X164200000Y-81315000D01*
X164200000Y-81299000D01*
X164202000Y-81284000D01*
X164204000Y-81268000D01*
X164207000Y-81253000D01*
X164210000Y-81237000D01*
X164215000Y-81222000D01*
X164220000Y-81207000D01*
X164226000Y-81193000D01*
X164233000Y-81179000D01*
X164240000Y-81165000D01*
X164248000Y-81152000D01*
X164257000Y-81139000D01*
X164267000Y-81126000D01*
X164277000Y-81114000D01*
X164288000Y-81103000D01*
X164299000Y-81092000D01*
X164311000Y-81082000D01*
X164324000Y-81072000D01*
X164337000Y-81063000D01*
X164350000Y-81055000D01*
X164364000Y-81048000D01*
X164378000Y-81041000D01*
X164392000Y-81035000D01*
X164407000Y-81030000D01*
X164422000Y-81025000D01*
X164438000Y-81022000D01*
X164453000Y-81019000D01*
X164469000Y-81017000D01*
X164484000Y-81015000D01*
X164500000Y-81015000D01*
X165700000Y-81015000D01*
X165716000Y-81015000D01*
X165731000Y-81017000D01*
G36*
X165731000Y-81017000D02*
G01*
X165747000Y-81019000D01*
X165762000Y-81022000D01*
X165778000Y-81025000D01*
X165793000Y-81030000D01*
X165808000Y-81035000D01*
X165822000Y-81041000D01*
X165836000Y-81048000D01*
X165850000Y-81055000D01*
X165863000Y-81063000D01*
X165876000Y-81072000D01*
X165889000Y-81082000D01*
X165901000Y-81092000D01*
X165912000Y-81103000D01*
X165923000Y-81114000D01*
X165933000Y-81126000D01*
X165943000Y-81139000D01*
X165952000Y-81152000D01*
X165960000Y-81165000D01*
X165967000Y-81179000D01*
X165974000Y-81193000D01*
X165980000Y-81207000D01*
X165985000Y-81222000D01*
X165990000Y-81237000D01*
X165993000Y-81253000D01*
X165996000Y-81268000D01*
X165998000Y-81284000D01*
X166000000Y-81299000D01*
X166000000Y-81315000D01*
X166000000Y-84415000D01*
X164200000Y-84415000D01*
X164200000Y-81315000D01*
X164200000Y-81299000D01*
X164202000Y-81284000D01*
X164204000Y-81268000D01*
X164207000Y-81253000D01*
X164210000Y-81237000D01*
X164215000Y-81222000D01*
X164220000Y-81207000D01*
X164226000Y-81193000D01*
X164233000Y-81179000D01*
X164240000Y-81165000D01*
X164248000Y-81152000D01*
X164257000Y-81139000D01*
X164267000Y-81126000D01*
X164277000Y-81114000D01*
X164288000Y-81103000D01*
X164299000Y-81092000D01*
X164311000Y-81082000D01*
X164324000Y-81072000D01*
X164337000Y-81063000D01*
X164350000Y-81055000D01*
X164364000Y-81048000D01*
X164378000Y-81041000D01*
X164392000Y-81035000D01*
X164407000Y-81030000D01*
X164422000Y-81025000D01*
X164438000Y-81022000D01*
X164453000Y-81019000D01*
X164469000Y-81017000D01*
X164484000Y-81015000D01*
X164500000Y-81015000D01*
X165700000Y-81015000D01*
X165716000Y-81015000D01*
X165731000Y-81017000D01*
G37*
X178431000Y-81017000D02*
X178447000Y-81019000D01*
X178462000Y-81022000D01*
X178478000Y-81025000D01*
X178493000Y-81030000D01*
X178508000Y-81035000D01*
X178522000Y-81041000D01*
X178536000Y-81048000D01*
X178550000Y-81055000D01*
X178563000Y-81063000D01*
X178576000Y-81072000D01*
X178589000Y-81082000D01*
X178601000Y-81092000D01*
X178612000Y-81103000D01*
X178623000Y-81114000D01*
X178633000Y-81126000D01*
X178643000Y-81139000D01*
X178652000Y-81152000D01*
X178660000Y-81165000D01*
X178667000Y-81179000D01*
X178674000Y-81193000D01*
X178680000Y-81207000D01*
X178685000Y-81222000D01*
X178690000Y-81237000D01*
X178693000Y-81253000D01*
X178696000Y-81268000D01*
X178698000Y-81284000D01*
X178700000Y-81299000D01*
X178700000Y-81315000D01*
X178700000Y-84415000D01*
X176900000Y-84415000D01*
X176900000Y-81315000D01*
X176900000Y-81299000D01*
X176902000Y-81284000D01*
X176904000Y-81268000D01*
X176907000Y-81253000D01*
X176910000Y-81237000D01*
X176915000Y-81222000D01*
X176920000Y-81207000D01*
X176926000Y-81193000D01*
X176933000Y-81179000D01*
X176940000Y-81165000D01*
X176948000Y-81152000D01*
X176957000Y-81139000D01*
X176967000Y-81126000D01*
X176977000Y-81114000D01*
X176988000Y-81103000D01*
X176999000Y-81092000D01*
X177011000Y-81082000D01*
X177024000Y-81072000D01*
X177037000Y-81063000D01*
X177050000Y-81055000D01*
X177064000Y-81048000D01*
X177078000Y-81041000D01*
X177092000Y-81035000D01*
X177107000Y-81030000D01*
X177122000Y-81025000D01*
X177138000Y-81022000D01*
X177153000Y-81019000D01*
X177169000Y-81017000D01*
X177184000Y-81015000D01*
X177200000Y-81015000D01*
X178400000Y-81015000D01*
X178416000Y-81015000D01*
X178431000Y-81017000D01*
G36*
X178431000Y-81017000D02*
G01*
X178447000Y-81019000D01*
X178462000Y-81022000D01*
X178478000Y-81025000D01*
X178493000Y-81030000D01*
X178508000Y-81035000D01*
X178522000Y-81041000D01*
X178536000Y-81048000D01*
X178550000Y-81055000D01*
X178563000Y-81063000D01*
X178576000Y-81072000D01*
X178589000Y-81082000D01*
X178601000Y-81092000D01*
X178612000Y-81103000D01*
X178623000Y-81114000D01*
X178633000Y-81126000D01*
X178643000Y-81139000D01*
X178652000Y-81152000D01*
X178660000Y-81165000D01*
X178667000Y-81179000D01*
X178674000Y-81193000D01*
X178680000Y-81207000D01*
X178685000Y-81222000D01*
X178690000Y-81237000D01*
X178693000Y-81253000D01*
X178696000Y-81268000D01*
X178698000Y-81284000D01*
X178700000Y-81299000D01*
X178700000Y-81315000D01*
X178700000Y-84415000D01*
X176900000Y-84415000D01*
X176900000Y-81315000D01*
X176900000Y-81299000D01*
X176902000Y-81284000D01*
X176904000Y-81268000D01*
X176907000Y-81253000D01*
X176910000Y-81237000D01*
X176915000Y-81222000D01*
X176920000Y-81207000D01*
X176926000Y-81193000D01*
X176933000Y-81179000D01*
X176940000Y-81165000D01*
X176948000Y-81152000D01*
X176957000Y-81139000D01*
X176967000Y-81126000D01*
X176977000Y-81114000D01*
X176988000Y-81103000D01*
X176999000Y-81092000D01*
X177011000Y-81082000D01*
X177024000Y-81072000D01*
X177037000Y-81063000D01*
X177050000Y-81055000D01*
X177064000Y-81048000D01*
X177078000Y-81041000D01*
X177092000Y-81035000D01*
X177107000Y-81030000D01*
X177122000Y-81025000D01*
X177138000Y-81022000D01*
X177153000Y-81019000D01*
X177169000Y-81017000D01*
X177184000Y-81015000D01*
X177200000Y-81015000D01*
X178400000Y-81015000D01*
X178416000Y-81015000D01*
X178431000Y-81017000D01*
G37*
X135481000Y-72127000D02*
X135497000Y-72129000D01*
X135512000Y-72132000D01*
X135528000Y-72135000D01*
X135543000Y-72140000D01*
X135558000Y-72145000D01*
X135572000Y-72151000D01*
X135586000Y-72158000D01*
X135600000Y-72165000D01*
X135613000Y-72173000D01*
X135626000Y-72182000D01*
X135639000Y-72192000D01*
X135651000Y-72202000D01*
X135662000Y-72213000D01*
X135673000Y-72224000D01*
X135683000Y-72236000D01*
X135693000Y-72249000D01*
X135702000Y-72262000D01*
X135710000Y-72275000D01*
X135717000Y-72289000D01*
X135724000Y-72303000D01*
X135730000Y-72317000D01*
X135735000Y-72332000D01*
X135740000Y-72347000D01*
X135743000Y-72363000D01*
X135746000Y-72378000D01*
X135748000Y-72394000D01*
X135750000Y-72409000D01*
X135750000Y-72425000D01*
X135750000Y-73625000D01*
X135750000Y-73641000D01*
X135748000Y-73656000D01*
X135746000Y-73672000D01*
X135743000Y-73687000D01*
X135740000Y-73703000D01*
X135735000Y-73718000D01*
X135730000Y-73733000D01*
X135724000Y-73747000D01*
X135717000Y-73761000D01*
X135710000Y-73775000D01*
X135702000Y-73788000D01*
X135693000Y-73801000D01*
X135683000Y-73814000D01*
X135673000Y-73826000D01*
X135662000Y-73837000D01*
X135651000Y-73848000D01*
X135639000Y-73858000D01*
X135626000Y-73868000D01*
X135613000Y-73877000D01*
X135600000Y-73885000D01*
X135586000Y-73892000D01*
X135572000Y-73899000D01*
X135558000Y-73905000D01*
X135543000Y-73910000D01*
X135528000Y-73915000D01*
X135512000Y-73918000D01*
X135497000Y-73921000D01*
X135481000Y-73923000D01*
X135466000Y-73925000D01*
X135450000Y-73925000D01*
X132350000Y-73925000D01*
X132350000Y-72125000D01*
X135450000Y-72125000D01*
X135466000Y-72125000D01*
X135481000Y-72127000D01*
G36*
X135481000Y-72127000D02*
G01*
X135497000Y-72129000D01*
X135512000Y-72132000D01*
X135528000Y-72135000D01*
X135543000Y-72140000D01*
X135558000Y-72145000D01*
X135572000Y-72151000D01*
X135586000Y-72158000D01*
X135600000Y-72165000D01*
X135613000Y-72173000D01*
X135626000Y-72182000D01*
X135639000Y-72192000D01*
X135651000Y-72202000D01*
X135662000Y-72213000D01*
X135673000Y-72224000D01*
X135683000Y-72236000D01*
X135693000Y-72249000D01*
X135702000Y-72262000D01*
X135710000Y-72275000D01*
X135717000Y-72289000D01*
X135724000Y-72303000D01*
X135730000Y-72317000D01*
X135735000Y-72332000D01*
X135740000Y-72347000D01*
X135743000Y-72363000D01*
X135746000Y-72378000D01*
X135748000Y-72394000D01*
X135750000Y-72409000D01*
X135750000Y-72425000D01*
X135750000Y-73625000D01*
X135750000Y-73641000D01*
X135748000Y-73656000D01*
X135746000Y-73672000D01*
X135743000Y-73687000D01*
X135740000Y-73703000D01*
X135735000Y-73718000D01*
X135730000Y-73733000D01*
X135724000Y-73747000D01*
X135717000Y-73761000D01*
X135710000Y-73775000D01*
X135702000Y-73788000D01*
X135693000Y-73801000D01*
X135683000Y-73814000D01*
X135673000Y-73826000D01*
X135662000Y-73837000D01*
X135651000Y-73848000D01*
X135639000Y-73858000D01*
X135626000Y-73868000D01*
X135613000Y-73877000D01*
X135600000Y-73885000D01*
X135586000Y-73892000D01*
X135572000Y-73899000D01*
X135558000Y-73905000D01*
X135543000Y-73910000D01*
X135528000Y-73915000D01*
X135512000Y-73918000D01*
X135497000Y-73921000D01*
X135481000Y-73923000D01*
X135466000Y-73925000D01*
X135450000Y-73925000D01*
X132350000Y-73925000D01*
X132350000Y-72125000D01*
X135450000Y-72125000D01*
X135466000Y-72125000D01*
X135481000Y-72127000D01*
G37*
X140600000Y-64735000D02*
X140600000Y-64751000D01*
X140598000Y-64766000D01*
X140596000Y-64782000D01*
X140593000Y-64797000D01*
X140590000Y-64813000D01*
X140585000Y-64828000D01*
X140580000Y-64843000D01*
X140574000Y-64857000D01*
X140567000Y-64871000D01*
X140560000Y-64885000D01*
X140552000Y-64898000D01*
X140543000Y-64911000D01*
X140533000Y-64924000D01*
X140523000Y-64936000D01*
X140512000Y-64947000D01*
X140501000Y-64958000D01*
X140489000Y-64968000D01*
X140476000Y-64978000D01*
X140463000Y-64987000D01*
X140450000Y-64995000D01*
X140436000Y-65002000D01*
X140422000Y-65009000D01*
X140408000Y-65015000D01*
X140393000Y-65020000D01*
X140378000Y-65025000D01*
X140362000Y-65028000D01*
X140347000Y-65031000D01*
X140331000Y-65033000D01*
X140316000Y-65035000D01*
X140300000Y-65035000D01*
X139100000Y-65035000D01*
X139084000Y-65035000D01*
X139069000Y-65033000D01*
X139053000Y-65031000D01*
X139038000Y-65028000D01*
X139022000Y-65025000D01*
X139007000Y-65020000D01*
X138992000Y-65015000D01*
X138978000Y-65009000D01*
X138964000Y-65002000D01*
X138950000Y-64995000D01*
X138937000Y-64987000D01*
X138924000Y-64978000D01*
X138911000Y-64968000D01*
X138899000Y-64958000D01*
X138888000Y-64947000D01*
X138877000Y-64936000D01*
X138867000Y-64924000D01*
X138857000Y-64911000D01*
X138848000Y-64898000D01*
X138840000Y-64885000D01*
X138833000Y-64871000D01*
X138826000Y-64857000D01*
X138820000Y-64843000D01*
X138815000Y-64828000D01*
X138810000Y-64813000D01*
X138807000Y-64797000D01*
X138804000Y-64782000D01*
X138802000Y-64766000D01*
X138800000Y-64751000D01*
X138800000Y-64735000D01*
X138800000Y-61635000D01*
X140600000Y-61635000D01*
X140600000Y-64735000D01*
G36*
X140600000Y-64735000D02*
G01*
X140600000Y-64751000D01*
X140598000Y-64766000D01*
X140596000Y-64782000D01*
X140593000Y-64797000D01*
X140590000Y-64813000D01*
X140585000Y-64828000D01*
X140580000Y-64843000D01*
X140574000Y-64857000D01*
X140567000Y-64871000D01*
X140560000Y-64885000D01*
X140552000Y-64898000D01*
X140543000Y-64911000D01*
X140533000Y-64924000D01*
X140523000Y-64936000D01*
X140512000Y-64947000D01*
X140501000Y-64958000D01*
X140489000Y-64968000D01*
X140476000Y-64978000D01*
X140463000Y-64987000D01*
X140450000Y-64995000D01*
X140436000Y-65002000D01*
X140422000Y-65009000D01*
X140408000Y-65015000D01*
X140393000Y-65020000D01*
X140378000Y-65025000D01*
X140362000Y-65028000D01*
X140347000Y-65031000D01*
X140331000Y-65033000D01*
X140316000Y-65035000D01*
X140300000Y-65035000D01*
X139100000Y-65035000D01*
X139084000Y-65035000D01*
X139069000Y-65033000D01*
X139053000Y-65031000D01*
X139038000Y-65028000D01*
X139022000Y-65025000D01*
X139007000Y-65020000D01*
X138992000Y-65015000D01*
X138978000Y-65009000D01*
X138964000Y-65002000D01*
X138950000Y-64995000D01*
X138937000Y-64987000D01*
X138924000Y-64978000D01*
X138911000Y-64968000D01*
X138899000Y-64958000D01*
X138888000Y-64947000D01*
X138877000Y-64936000D01*
X138867000Y-64924000D01*
X138857000Y-64911000D01*
X138848000Y-64898000D01*
X138840000Y-64885000D01*
X138833000Y-64871000D01*
X138826000Y-64857000D01*
X138820000Y-64843000D01*
X138815000Y-64828000D01*
X138810000Y-64813000D01*
X138807000Y-64797000D01*
X138804000Y-64782000D01*
X138802000Y-64766000D01*
X138800000Y-64751000D01*
X138800000Y-64735000D01*
X138800000Y-61635000D01*
X140600000Y-61635000D01*
X140600000Y-64735000D01*
G37*
X153300000Y-64735000D02*
X153300000Y-64751000D01*
X153298000Y-64766000D01*
X153296000Y-64782000D01*
X153293000Y-64797000D01*
X153290000Y-64813000D01*
X153285000Y-64828000D01*
X153280000Y-64843000D01*
X153274000Y-64857000D01*
X153267000Y-64871000D01*
X153260000Y-64885000D01*
X153252000Y-64898000D01*
X153243000Y-64911000D01*
X153233000Y-64924000D01*
X153223000Y-64936000D01*
X153212000Y-64947000D01*
X153201000Y-64958000D01*
X153189000Y-64968000D01*
X153176000Y-64978000D01*
X153163000Y-64987000D01*
X153150000Y-64995000D01*
X153136000Y-65002000D01*
X153122000Y-65009000D01*
X153108000Y-65015000D01*
X153093000Y-65020000D01*
X153078000Y-65025000D01*
X153062000Y-65028000D01*
X153047000Y-65031000D01*
X153031000Y-65033000D01*
X153016000Y-65035000D01*
X153000000Y-65035000D01*
X151800000Y-65035000D01*
X151784000Y-65035000D01*
X151769000Y-65033000D01*
X151753000Y-65031000D01*
X151738000Y-65028000D01*
X151722000Y-65025000D01*
X151707000Y-65020000D01*
X151692000Y-65015000D01*
X151678000Y-65009000D01*
X151664000Y-65002000D01*
X151650000Y-64995000D01*
X151637000Y-64987000D01*
X151624000Y-64978000D01*
X151611000Y-64968000D01*
X151599000Y-64958000D01*
X151588000Y-64947000D01*
X151577000Y-64936000D01*
X151567000Y-64924000D01*
X151557000Y-64911000D01*
X151548000Y-64898000D01*
X151540000Y-64885000D01*
X151533000Y-64871000D01*
X151526000Y-64857000D01*
X151520000Y-64843000D01*
X151515000Y-64828000D01*
X151510000Y-64813000D01*
X151507000Y-64797000D01*
X151504000Y-64782000D01*
X151502000Y-64766000D01*
X151500000Y-64751000D01*
X151500000Y-64735000D01*
X151500000Y-61635000D01*
X153300000Y-61635000D01*
X153300000Y-64735000D01*
G36*
X153300000Y-64735000D02*
G01*
X153300000Y-64751000D01*
X153298000Y-64766000D01*
X153296000Y-64782000D01*
X153293000Y-64797000D01*
X153290000Y-64813000D01*
X153285000Y-64828000D01*
X153280000Y-64843000D01*
X153274000Y-64857000D01*
X153267000Y-64871000D01*
X153260000Y-64885000D01*
X153252000Y-64898000D01*
X153243000Y-64911000D01*
X153233000Y-64924000D01*
X153223000Y-64936000D01*
X153212000Y-64947000D01*
X153201000Y-64958000D01*
X153189000Y-64968000D01*
X153176000Y-64978000D01*
X153163000Y-64987000D01*
X153150000Y-64995000D01*
X153136000Y-65002000D01*
X153122000Y-65009000D01*
X153108000Y-65015000D01*
X153093000Y-65020000D01*
X153078000Y-65025000D01*
X153062000Y-65028000D01*
X153047000Y-65031000D01*
X153031000Y-65033000D01*
X153016000Y-65035000D01*
X153000000Y-65035000D01*
X151800000Y-65035000D01*
X151784000Y-65035000D01*
X151769000Y-65033000D01*
X151753000Y-65031000D01*
X151738000Y-65028000D01*
X151722000Y-65025000D01*
X151707000Y-65020000D01*
X151692000Y-65015000D01*
X151678000Y-65009000D01*
X151664000Y-65002000D01*
X151650000Y-64995000D01*
X151637000Y-64987000D01*
X151624000Y-64978000D01*
X151611000Y-64968000D01*
X151599000Y-64958000D01*
X151588000Y-64947000D01*
X151577000Y-64936000D01*
X151567000Y-64924000D01*
X151557000Y-64911000D01*
X151548000Y-64898000D01*
X151540000Y-64885000D01*
X151533000Y-64871000D01*
X151526000Y-64857000D01*
X151520000Y-64843000D01*
X151515000Y-64828000D01*
X151510000Y-64813000D01*
X151507000Y-64797000D01*
X151504000Y-64782000D01*
X151502000Y-64766000D01*
X151500000Y-64751000D01*
X151500000Y-64735000D01*
X151500000Y-61635000D01*
X153300000Y-61635000D01*
X153300000Y-64735000D01*
G37*
X166000000Y-64735000D02*
X166000000Y-64751000D01*
X165998000Y-64766000D01*
X165996000Y-64782000D01*
X165993000Y-64797000D01*
X165990000Y-64813000D01*
X165985000Y-64828000D01*
X165980000Y-64843000D01*
X165974000Y-64857000D01*
X165967000Y-64871000D01*
X165960000Y-64885000D01*
X165952000Y-64898000D01*
X165943000Y-64911000D01*
X165933000Y-64924000D01*
X165923000Y-64936000D01*
X165912000Y-64947000D01*
X165901000Y-64958000D01*
X165889000Y-64968000D01*
X165876000Y-64978000D01*
X165863000Y-64987000D01*
X165850000Y-64995000D01*
X165836000Y-65002000D01*
X165822000Y-65009000D01*
X165808000Y-65015000D01*
X165793000Y-65020000D01*
X165778000Y-65025000D01*
X165762000Y-65028000D01*
X165747000Y-65031000D01*
X165731000Y-65033000D01*
X165716000Y-65035000D01*
X165700000Y-65035000D01*
X164500000Y-65035000D01*
X164484000Y-65035000D01*
X164469000Y-65033000D01*
X164453000Y-65031000D01*
X164438000Y-65028000D01*
X164422000Y-65025000D01*
X164407000Y-65020000D01*
X164392000Y-65015000D01*
X164378000Y-65009000D01*
X164364000Y-65002000D01*
X164350000Y-64995000D01*
X164337000Y-64987000D01*
X164324000Y-64978000D01*
X164311000Y-64968000D01*
X164299000Y-64958000D01*
X164288000Y-64947000D01*
X164277000Y-64936000D01*
X164267000Y-64924000D01*
X164257000Y-64911000D01*
X164248000Y-64898000D01*
X164240000Y-64885000D01*
X164233000Y-64871000D01*
X164226000Y-64857000D01*
X164220000Y-64843000D01*
X164215000Y-64828000D01*
X164210000Y-64813000D01*
X164207000Y-64797000D01*
X164204000Y-64782000D01*
X164202000Y-64766000D01*
X164200000Y-64751000D01*
X164200000Y-64735000D01*
X164200000Y-61635000D01*
X166000000Y-61635000D01*
X166000000Y-64735000D01*
G36*
X166000000Y-64735000D02*
G01*
X166000000Y-64751000D01*
X165998000Y-64766000D01*
X165996000Y-64782000D01*
X165993000Y-64797000D01*
X165990000Y-64813000D01*
X165985000Y-64828000D01*
X165980000Y-64843000D01*
X165974000Y-64857000D01*
X165967000Y-64871000D01*
X165960000Y-64885000D01*
X165952000Y-64898000D01*
X165943000Y-64911000D01*
X165933000Y-64924000D01*
X165923000Y-64936000D01*
X165912000Y-64947000D01*
X165901000Y-64958000D01*
X165889000Y-64968000D01*
X165876000Y-64978000D01*
X165863000Y-64987000D01*
X165850000Y-64995000D01*
X165836000Y-65002000D01*
X165822000Y-65009000D01*
X165808000Y-65015000D01*
X165793000Y-65020000D01*
X165778000Y-65025000D01*
X165762000Y-65028000D01*
X165747000Y-65031000D01*
X165731000Y-65033000D01*
X165716000Y-65035000D01*
X165700000Y-65035000D01*
X164500000Y-65035000D01*
X164484000Y-65035000D01*
X164469000Y-65033000D01*
X164453000Y-65031000D01*
X164438000Y-65028000D01*
X164422000Y-65025000D01*
X164407000Y-65020000D01*
X164392000Y-65015000D01*
X164378000Y-65009000D01*
X164364000Y-65002000D01*
X164350000Y-64995000D01*
X164337000Y-64987000D01*
X164324000Y-64978000D01*
X164311000Y-64968000D01*
X164299000Y-64958000D01*
X164288000Y-64947000D01*
X164277000Y-64936000D01*
X164267000Y-64924000D01*
X164257000Y-64911000D01*
X164248000Y-64898000D01*
X164240000Y-64885000D01*
X164233000Y-64871000D01*
X164226000Y-64857000D01*
X164220000Y-64843000D01*
X164215000Y-64828000D01*
X164210000Y-64813000D01*
X164207000Y-64797000D01*
X164204000Y-64782000D01*
X164202000Y-64766000D01*
X164200000Y-64751000D01*
X164200000Y-64735000D01*
X164200000Y-61635000D01*
X166000000Y-61635000D01*
X166000000Y-64735000D01*
G37*
X178700000Y-64735000D02*
X178700000Y-64751000D01*
X178698000Y-64766000D01*
X178696000Y-64782000D01*
X178693000Y-64797000D01*
X178690000Y-64813000D01*
X178685000Y-64828000D01*
X178680000Y-64843000D01*
X178674000Y-64857000D01*
X178667000Y-64871000D01*
X178660000Y-64885000D01*
X178652000Y-64898000D01*
X178643000Y-64911000D01*
X178633000Y-64924000D01*
X178623000Y-64936000D01*
X178612000Y-64947000D01*
X178601000Y-64958000D01*
X178589000Y-64968000D01*
X178576000Y-64978000D01*
X178563000Y-64987000D01*
X178550000Y-64995000D01*
X178536000Y-65002000D01*
X178522000Y-65009000D01*
X178508000Y-65015000D01*
X178493000Y-65020000D01*
X178478000Y-65025000D01*
X178462000Y-65028000D01*
X178447000Y-65031000D01*
X178431000Y-65033000D01*
X178416000Y-65035000D01*
X178400000Y-65035000D01*
X177200000Y-65035000D01*
X177184000Y-65035000D01*
X177169000Y-65033000D01*
X177153000Y-65031000D01*
X177138000Y-65028000D01*
X177122000Y-65025000D01*
X177107000Y-65020000D01*
X177092000Y-65015000D01*
X177078000Y-65009000D01*
X177064000Y-65002000D01*
X177050000Y-64995000D01*
X177037000Y-64987000D01*
X177024000Y-64978000D01*
X177011000Y-64968000D01*
X176999000Y-64958000D01*
X176988000Y-64947000D01*
X176977000Y-64936000D01*
X176967000Y-64924000D01*
X176957000Y-64911000D01*
X176948000Y-64898000D01*
X176940000Y-64885000D01*
X176933000Y-64871000D01*
X176926000Y-64857000D01*
X176920000Y-64843000D01*
X176915000Y-64828000D01*
X176910000Y-64813000D01*
X176907000Y-64797000D01*
X176904000Y-64782000D01*
X176902000Y-64766000D01*
X176900000Y-64751000D01*
X176900000Y-64735000D01*
X176900000Y-61635000D01*
X178700000Y-61635000D01*
X178700000Y-64735000D01*
G36*
X178700000Y-64735000D02*
G01*
X178700000Y-64751000D01*
X178698000Y-64766000D01*
X178696000Y-64782000D01*
X178693000Y-64797000D01*
X178690000Y-64813000D01*
X178685000Y-64828000D01*
X178680000Y-64843000D01*
X178674000Y-64857000D01*
X178667000Y-64871000D01*
X178660000Y-64885000D01*
X178652000Y-64898000D01*
X178643000Y-64911000D01*
X178633000Y-64924000D01*
X178623000Y-64936000D01*
X178612000Y-64947000D01*
X178601000Y-64958000D01*
X178589000Y-64968000D01*
X178576000Y-64978000D01*
X178563000Y-64987000D01*
X178550000Y-64995000D01*
X178536000Y-65002000D01*
X178522000Y-65009000D01*
X178508000Y-65015000D01*
X178493000Y-65020000D01*
X178478000Y-65025000D01*
X178462000Y-65028000D01*
X178447000Y-65031000D01*
X178431000Y-65033000D01*
X178416000Y-65035000D01*
X178400000Y-65035000D01*
X177200000Y-65035000D01*
X177184000Y-65035000D01*
X177169000Y-65033000D01*
X177153000Y-65031000D01*
X177138000Y-65028000D01*
X177122000Y-65025000D01*
X177107000Y-65020000D01*
X177092000Y-65015000D01*
X177078000Y-65009000D01*
X177064000Y-65002000D01*
X177050000Y-64995000D01*
X177037000Y-64987000D01*
X177024000Y-64978000D01*
X177011000Y-64968000D01*
X176999000Y-64958000D01*
X176988000Y-64947000D01*
X176977000Y-64936000D01*
X176967000Y-64924000D01*
X176957000Y-64911000D01*
X176948000Y-64898000D01*
X176940000Y-64885000D01*
X176933000Y-64871000D01*
X176926000Y-64857000D01*
X176920000Y-64843000D01*
X176915000Y-64828000D01*
X176910000Y-64813000D01*
X176907000Y-64797000D01*
X176904000Y-64782000D01*
X176902000Y-64766000D01*
X176900000Y-64751000D01*
X176900000Y-64735000D01*
X176900000Y-61635000D01*
X178700000Y-61635000D01*
X178700000Y-64735000D01*
G37*
X134667000Y-81016000D02*
X134714000Y-81020000D01*
X134761000Y-81026000D01*
X134807000Y-81035000D01*
X134853000Y-81046000D01*
X134898000Y-81059000D01*
X134943000Y-81075000D01*
X134986000Y-81093000D01*
X135029000Y-81113000D01*
X135070000Y-81136000D01*
X135110000Y-81160000D01*
X135149000Y-81187000D01*
X135186000Y-81216000D01*
X135222000Y-81246000D01*
X135256000Y-81279000D01*
X135289000Y-81313000D01*
X135319000Y-81349000D01*
X135348000Y-81386000D01*
X135375000Y-81425000D01*
X135399000Y-81465000D01*
X135422000Y-81506000D01*
X135442000Y-81549000D01*
X135460000Y-81592000D01*
X135476000Y-81637000D01*
X135489000Y-81682000D01*
X135500000Y-81728000D01*
X135509000Y-81774000D01*
X135515000Y-81821000D01*
X135519000Y-81868000D01*
X135520000Y-81915000D01*
X135520000Y-84415000D01*
X133720000Y-84415000D01*
X133720000Y-81915000D01*
X133721000Y-81868000D01*
X133725000Y-81821000D01*
X133731000Y-81774000D01*
X133740000Y-81728000D01*
X133751000Y-81682000D01*
X133764000Y-81637000D01*
X133780000Y-81592000D01*
X133798000Y-81549000D01*
X133818000Y-81506000D01*
X133841000Y-81465000D01*
X133865000Y-81425000D01*
X133892000Y-81386000D01*
X133921000Y-81349000D01*
X133951000Y-81313000D01*
X133984000Y-81279000D01*
X134018000Y-81246000D01*
X134054000Y-81216000D01*
X134091000Y-81187000D01*
X134130000Y-81160000D01*
X134170000Y-81136000D01*
X134211000Y-81113000D01*
X134254000Y-81093000D01*
X134297000Y-81075000D01*
X134342000Y-81059000D01*
X134387000Y-81046000D01*
X134433000Y-81035000D01*
X134479000Y-81026000D01*
X134526000Y-81020000D01*
X134573000Y-81016000D01*
X134620000Y-81015000D01*
X134667000Y-81016000D01*
G36*
X134667000Y-81016000D02*
G01*
X134714000Y-81020000D01*
X134761000Y-81026000D01*
X134807000Y-81035000D01*
X134853000Y-81046000D01*
X134898000Y-81059000D01*
X134943000Y-81075000D01*
X134986000Y-81093000D01*
X135029000Y-81113000D01*
X135070000Y-81136000D01*
X135110000Y-81160000D01*
X135149000Y-81187000D01*
X135186000Y-81216000D01*
X135222000Y-81246000D01*
X135256000Y-81279000D01*
X135289000Y-81313000D01*
X135319000Y-81349000D01*
X135348000Y-81386000D01*
X135375000Y-81425000D01*
X135399000Y-81465000D01*
X135422000Y-81506000D01*
X135442000Y-81549000D01*
X135460000Y-81592000D01*
X135476000Y-81637000D01*
X135489000Y-81682000D01*
X135500000Y-81728000D01*
X135509000Y-81774000D01*
X135515000Y-81821000D01*
X135519000Y-81868000D01*
X135520000Y-81915000D01*
X135520000Y-84415000D01*
X133720000Y-84415000D01*
X133720000Y-81915000D01*
X133721000Y-81868000D01*
X133725000Y-81821000D01*
X133731000Y-81774000D01*
X133740000Y-81728000D01*
X133751000Y-81682000D01*
X133764000Y-81637000D01*
X133780000Y-81592000D01*
X133798000Y-81549000D01*
X133818000Y-81506000D01*
X133841000Y-81465000D01*
X133865000Y-81425000D01*
X133892000Y-81386000D01*
X133921000Y-81349000D01*
X133951000Y-81313000D01*
X133984000Y-81279000D01*
X134018000Y-81246000D01*
X134054000Y-81216000D01*
X134091000Y-81187000D01*
X134130000Y-81160000D01*
X134170000Y-81136000D01*
X134211000Y-81113000D01*
X134254000Y-81093000D01*
X134297000Y-81075000D01*
X134342000Y-81059000D01*
X134387000Y-81046000D01*
X134433000Y-81035000D01*
X134479000Y-81026000D01*
X134526000Y-81020000D01*
X134573000Y-81016000D01*
X134620000Y-81015000D01*
X134667000Y-81016000D01*
G37*
X137207000Y-81016000D02*
X137254000Y-81020000D01*
X137301000Y-81026000D01*
X137347000Y-81035000D01*
X137393000Y-81046000D01*
X137438000Y-81059000D01*
X137483000Y-81075000D01*
X137526000Y-81093000D01*
X137569000Y-81113000D01*
X137610000Y-81136000D01*
X137650000Y-81160000D01*
X137689000Y-81187000D01*
X137726000Y-81216000D01*
X137762000Y-81246000D01*
X137796000Y-81279000D01*
X137829000Y-81313000D01*
X137859000Y-81349000D01*
X137888000Y-81386000D01*
X137915000Y-81425000D01*
X137939000Y-81465000D01*
X137962000Y-81506000D01*
X137982000Y-81549000D01*
X138000000Y-81592000D01*
X138016000Y-81637000D01*
X138029000Y-81682000D01*
X138040000Y-81728000D01*
X138049000Y-81774000D01*
X138055000Y-81821000D01*
X138059000Y-81868000D01*
X138060000Y-81915000D01*
X138060000Y-84415000D01*
X136260000Y-84415000D01*
X136260000Y-81915000D01*
X136261000Y-81868000D01*
X136265000Y-81821000D01*
X136271000Y-81774000D01*
X136280000Y-81728000D01*
X136291000Y-81682000D01*
X136304000Y-81637000D01*
X136320000Y-81592000D01*
X136338000Y-81549000D01*
X136358000Y-81506000D01*
X136381000Y-81465000D01*
X136405000Y-81425000D01*
X136432000Y-81386000D01*
X136461000Y-81349000D01*
X136491000Y-81313000D01*
X136524000Y-81279000D01*
X136558000Y-81246000D01*
X136594000Y-81216000D01*
X136631000Y-81187000D01*
X136670000Y-81160000D01*
X136710000Y-81136000D01*
X136751000Y-81113000D01*
X136794000Y-81093000D01*
X136837000Y-81075000D01*
X136882000Y-81059000D01*
X136927000Y-81046000D01*
X136973000Y-81035000D01*
X137019000Y-81026000D01*
X137066000Y-81020000D01*
X137113000Y-81016000D01*
X137160000Y-81015000D01*
X137207000Y-81016000D01*
G36*
X137207000Y-81016000D02*
G01*
X137254000Y-81020000D01*
X137301000Y-81026000D01*
X137347000Y-81035000D01*
X137393000Y-81046000D01*
X137438000Y-81059000D01*
X137483000Y-81075000D01*
X137526000Y-81093000D01*
X137569000Y-81113000D01*
X137610000Y-81136000D01*
X137650000Y-81160000D01*
X137689000Y-81187000D01*
X137726000Y-81216000D01*
X137762000Y-81246000D01*
X137796000Y-81279000D01*
X137829000Y-81313000D01*
X137859000Y-81349000D01*
X137888000Y-81386000D01*
X137915000Y-81425000D01*
X137939000Y-81465000D01*
X137962000Y-81506000D01*
X137982000Y-81549000D01*
X138000000Y-81592000D01*
X138016000Y-81637000D01*
X138029000Y-81682000D01*
X138040000Y-81728000D01*
X138049000Y-81774000D01*
X138055000Y-81821000D01*
X138059000Y-81868000D01*
X138060000Y-81915000D01*
X138060000Y-84415000D01*
X136260000Y-84415000D01*
X136260000Y-81915000D01*
X136261000Y-81868000D01*
X136265000Y-81821000D01*
X136271000Y-81774000D01*
X136280000Y-81728000D01*
X136291000Y-81682000D01*
X136304000Y-81637000D01*
X136320000Y-81592000D01*
X136338000Y-81549000D01*
X136358000Y-81506000D01*
X136381000Y-81465000D01*
X136405000Y-81425000D01*
X136432000Y-81386000D01*
X136461000Y-81349000D01*
X136491000Y-81313000D01*
X136524000Y-81279000D01*
X136558000Y-81246000D01*
X136594000Y-81216000D01*
X136631000Y-81187000D01*
X136670000Y-81160000D01*
X136710000Y-81136000D01*
X136751000Y-81113000D01*
X136794000Y-81093000D01*
X136837000Y-81075000D01*
X136882000Y-81059000D01*
X136927000Y-81046000D01*
X136973000Y-81035000D01*
X137019000Y-81026000D01*
X137066000Y-81020000D01*
X137113000Y-81016000D01*
X137160000Y-81015000D01*
X137207000Y-81016000D01*
G37*
X142287000Y-81016000D02*
X142334000Y-81020000D01*
X142381000Y-81026000D01*
X142427000Y-81035000D01*
X142473000Y-81046000D01*
X142518000Y-81059000D01*
X142563000Y-81075000D01*
X142606000Y-81093000D01*
X142649000Y-81113000D01*
X142690000Y-81136000D01*
X142730000Y-81160000D01*
X142769000Y-81187000D01*
X142806000Y-81216000D01*
X142842000Y-81246000D01*
X142876000Y-81279000D01*
X142909000Y-81313000D01*
X142939000Y-81349000D01*
X142968000Y-81386000D01*
X142995000Y-81425000D01*
X143019000Y-81465000D01*
X143042000Y-81506000D01*
X143062000Y-81549000D01*
X143080000Y-81592000D01*
X143096000Y-81637000D01*
X143109000Y-81682000D01*
X143120000Y-81728000D01*
X143129000Y-81774000D01*
X143135000Y-81821000D01*
X143139000Y-81868000D01*
X143140000Y-81915000D01*
X143140000Y-84415000D01*
X141340000Y-84415000D01*
X141340000Y-81915000D01*
X141341000Y-81868000D01*
X141345000Y-81821000D01*
X141351000Y-81774000D01*
X141360000Y-81728000D01*
X141371000Y-81682000D01*
X141384000Y-81637000D01*
X141400000Y-81592000D01*
X141418000Y-81549000D01*
X141438000Y-81506000D01*
X141461000Y-81465000D01*
X141485000Y-81425000D01*
X141512000Y-81386000D01*
X141541000Y-81349000D01*
X141571000Y-81313000D01*
X141604000Y-81279000D01*
X141638000Y-81246000D01*
X141674000Y-81216000D01*
X141711000Y-81187000D01*
X141750000Y-81160000D01*
X141790000Y-81136000D01*
X141831000Y-81113000D01*
X141874000Y-81093000D01*
X141917000Y-81075000D01*
X141962000Y-81059000D01*
X142007000Y-81046000D01*
X142053000Y-81035000D01*
X142099000Y-81026000D01*
X142146000Y-81020000D01*
X142193000Y-81016000D01*
X142240000Y-81015000D01*
X142287000Y-81016000D01*
G36*
X142287000Y-81016000D02*
G01*
X142334000Y-81020000D01*
X142381000Y-81026000D01*
X142427000Y-81035000D01*
X142473000Y-81046000D01*
X142518000Y-81059000D01*
X142563000Y-81075000D01*
X142606000Y-81093000D01*
X142649000Y-81113000D01*
X142690000Y-81136000D01*
X142730000Y-81160000D01*
X142769000Y-81187000D01*
X142806000Y-81216000D01*
X142842000Y-81246000D01*
X142876000Y-81279000D01*
X142909000Y-81313000D01*
X142939000Y-81349000D01*
X142968000Y-81386000D01*
X142995000Y-81425000D01*
X143019000Y-81465000D01*
X143042000Y-81506000D01*
X143062000Y-81549000D01*
X143080000Y-81592000D01*
X143096000Y-81637000D01*
X143109000Y-81682000D01*
X143120000Y-81728000D01*
X143129000Y-81774000D01*
X143135000Y-81821000D01*
X143139000Y-81868000D01*
X143140000Y-81915000D01*
X143140000Y-84415000D01*
X141340000Y-84415000D01*
X141340000Y-81915000D01*
X141341000Y-81868000D01*
X141345000Y-81821000D01*
X141351000Y-81774000D01*
X141360000Y-81728000D01*
X141371000Y-81682000D01*
X141384000Y-81637000D01*
X141400000Y-81592000D01*
X141418000Y-81549000D01*
X141438000Y-81506000D01*
X141461000Y-81465000D01*
X141485000Y-81425000D01*
X141512000Y-81386000D01*
X141541000Y-81349000D01*
X141571000Y-81313000D01*
X141604000Y-81279000D01*
X141638000Y-81246000D01*
X141674000Y-81216000D01*
X141711000Y-81187000D01*
X141750000Y-81160000D01*
X141790000Y-81136000D01*
X141831000Y-81113000D01*
X141874000Y-81093000D01*
X141917000Y-81075000D01*
X141962000Y-81059000D01*
X142007000Y-81046000D01*
X142053000Y-81035000D01*
X142099000Y-81026000D01*
X142146000Y-81020000D01*
X142193000Y-81016000D01*
X142240000Y-81015000D01*
X142287000Y-81016000D01*
G37*
X144827000Y-81016000D02*
X144874000Y-81020000D01*
X144921000Y-81026000D01*
X144967000Y-81035000D01*
X145013000Y-81046000D01*
X145058000Y-81059000D01*
X145103000Y-81075000D01*
X145146000Y-81093000D01*
X145189000Y-81113000D01*
X145230000Y-81136000D01*
X145270000Y-81160000D01*
X145309000Y-81187000D01*
X145346000Y-81216000D01*
X145382000Y-81246000D01*
X145416000Y-81279000D01*
X145449000Y-81313000D01*
X145479000Y-81349000D01*
X145508000Y-81386000D01*
X145535000Y-81425000D01*
X145559000Y-81465000D01*
X145582000Y-81506000D01*
X145602000Y-81549000D01*
X145620000Y-81592000D01*
X145636000Y-81637000D01*
X145649000Y-81682000D01*
X145660000Y-81728000D01*
X145669000Y-81774000D01*
X145675000Y-81821000D01*
X145679000Y-81868000D01*
X145680000Y-81915000D01*
X145680000Y-84415000D01*
X143880000Y-84415000D01*
X143880000Y-81915000D01*
X143881000Y-81868000D01*
X143885000Y-81821000D01*
X143891000Y-81774000D01*
X143900000Y-81728000D01*
X143911000Y-81682000D01*
X143924000Y-81637000D01*
X143940000Y-81592000D01*
X143958000Y-81549000D01*
X143978000Y-81506000D01*
X144001000Y-81465000D01*
X144025000Y-81425000D01*
X144052000Y-81386000D01*
X144081000Y-81349000D01*
X144111000Y-81313000D01*
X144144000Y-81279000D01*
X144178000Y-81246000D01*
X144214000Y-81216000D01*
X144251000Y-81187000D01*
X144290000Y-81160000D01*
X144330000Y-81136000D01*
X144371000Y-81113000D01*
X144414000Y-81093000D01*
X144457000Y-81075000D01*
X144502000Y-81059000D01*
X144547000Y-81046000D01*
X144593000Y-81035000D01*
X144639000Y-81026000D01*
X144686000Y-81020000D01*
X144733000Y-81016000D01*
X144780000Y-81015000D01*
X144827000Y-81016000D01*
G36*
X144827000Y-81016000D02*
G01*
X144874000Y-81020000D01*
X144921000Y-81026000D01*
X144967000Y-81035000D01*
X145013000Y-81046000D01*
X145058000Y-81059000D01*
X145103000Y-81075000D01*
X145146000Y-81093000D01*
X145189000Y-81113000D01*
X145230000Y-81136000D01*
X145270000Y-81160000D01*
X145309000Y-81187000D01*
X145346000Y-81216000D01*
X145382000Y-81246000D01*
X145416000Y-81279000D01*
X145449000Y-81313000D01*
X145479000Y-81349000D01*
X145508000Y-81386000D01*
X145535000Y-81425000D01*
X145559000Y-81465000D01*
X145582000Y-81506000D01*
X145602000Y-81549000D01*
X145620000Y-81592000D01*
X145636000Y-81637000D01*
X145649000Y-81682000D01*
X145660000Y-81728000D01*
X145669000Y-81774000D01*
X145675000Y-81821000D01*
X145679000Y-81868000D01*
X145680000Y-81915000D01*
X145680000Y-84415000D01*
X143880000Y-84415000D01*
X143880000Y-81915000D01*
X143881000Y-81868000D01*
X143885000Y-81821000D01*
X143891000Y-81774000D01*
X143900000Y-81728000D01*
X143911000Y-81682000D01*
X143924000Y-81637000D01*
X143940000Y-81592000D01*
X143958000Y-81549000D01*
X143978000Y-81506000D01*
X144001000Y-81465000D01*
X144025000Y-81425000D01*
X144052000Y-81386000D01*
X144081000Y-81349000D01*
X144111000Y-81313000D01*
X144144000Y-81279000D01*
X144178000Y-81246000D01*
X144214000Y-81216000D01*
X144251000Y-81187000D01*
X144290000Y-81160000D01*
X144330000Y-81136000D01*
X144371000Y-81113000D01*
X144414000Y-81093000D01*
X144457000Y-81075000D01*
X144502000Y-81059000D01*
X144547000Y-81046000D01*
X144593000Y-81035000D01*
X144639000Y-81026000D01*
X144686000Y-81020000D01*
X144733000Y-81016000D01*
X144780000Y-81015000D01*
X144827000Y-81016000D01*
G37*
X147367000Y-81016000D02*
X147414000Y-81020000D01*
X147461000Y-81026000D01*
X147507000Y-81035000D01*
X147553000Y-81046000D01*
X147598000Y-81059000D01*
X147643000Y-81075000D01*
X147686000Y-81093000D01*
X147729000Y-81113000D01*
X147770000Y-81136000D01*
X147810000Y-81160000D01*
X147849000Y-81187000D01*
X147886000Y-81216000D01*
X147922000Y-81246000D01*
X147956000Y-81279000D01*
X147989000Y-81313000D01*
X148019000Y-81349000D01*
X148048000Y-81386000D01*
X148075000Y-81425000D01*
X148099000Y-81465000D01*
X148122000Y-81506000D01*
X148142000Y-81549000D01*
X148160000Y-81592000D01*
X148176000Y-81637000D01*
X148189000Y-81682000D01*
X148200000Y-81728000D01*
X148209000Y-81774000D01*
X148215000Y-81821000D01*
X148219000Y-81868000D01*
X148220000Y-81915000D01*
X148220000Y-84415000D01*
X146420000Y-84415000D01*
X146420000Y-81915000D01*
X146421000Y-81868000D01*
X146425000Y-81821000D01*
X146431000Y-81774000D01*
X146440000Y-81728000D01*
X146451000Y-81682000D01*
X146464000Y-81637000D01*
X146480000Y-81592000D01*
X146498000Y-81549000D01*
X146518000Y-81506000D01*
X146541000Y-81465000D01*
X146565000Y-81425000D01*
X146592000Y-81386000D01*
X146621000Y-81349000D01*
X146651000Y-81313000D01*
X146684000Y-81279000D01*
X146718000Y-81246000D01*
X146754000Y-81216000D01*
X146791000Y-81187000D01*
X146830000Y-81160000D01*
X146870000Y-81136000D01*
X146911000Y-81113000D01*
X146954000Y-81093000D01*
X146997000Y-81075000D01*
X147042000Y-81059000D01*
X147087000Y-81046000D01*
X147133000Y-81035000D01*
X147179000Y-81026000D01*
X147226000Y-81020000D01*
X147273000Y-81016000D01*
X147320000Y-81015000D01*
X147367000Y-81016000D01*
G36*
X147367000Y-81016000D02*
G01*
X147414000Y-81020000D01*
X147461000Y-81026000D01*
X147507000Y-81035000D01*
X147553000Y-81046000D01*
X147598000Y-81059000D01*
X147643000Y-81075000D01*
X147686000Y-81093000D01*
X147729000Y-81113000D01*
X147770000Y-81136000D01*
X147810000Y-81160000D01*
X147849000Y-81187000D01*
X147886000Y-81216000D01*
X147922000Y-81246000D01*
X147956000Y-81279000D01*
X147989000Y-81313000D01*
X148019000Y-81349000D01*
X148048000Y-81386000D01*
X148075000Y-81425000D01*
X148099000Y-81465000D01*
X148122000Y-81506000D01*
X148142000Y-81549000D01*
X148160000Y-81592000D01*
X148176000Y-81637000D01*
X148189000Y-81682000D01*
X148200000Y-81728000D01*
X148209000Y-81774000D01*
X148215000Y-81821000D01*
X148219000Y-81868000D01*
X148220000Y-81915000D01*
X148220000Y-84415000D01*
X146420000Y-84415000D01*
X146420000Y-81915000D01*
X146421000Y-81868000D01*
X146425000Y-81821000D01*
X146431000Y-81774000D01*
X146440000Y-81728000D01*
X146451000Y-81682000D01*
X146464000Y-81637000D01*
X146480000Y-81592000D01*
X146498000Y-81549000D01*
X146518000Y-81506000D01*
X146541000Y-81465000D01*
X146565000Y-81425000D01*
X146592000Y-81386000D01*
X146621000Y-81349000D01*
X146651000Y-81313000D01*
X146684000Y-81279000D01*
X146718000Y-81246000D01*
X146754000Y-81216000D01*
X146791000Y-81187000D01*
X146830000Y-81160000D01*
X146870000Y-81136000D01*
X146911000Y-81113000D01*
X146954000Y-81093000D01*
X146997000Y-81075000D01*
X147042000Y-81059000D01*
X147087000Y-81046000D01*
X147133000Y-81035000D01*
X147179000Y-81026000D01*
X147226000Y-81020000D01*
X147273000Y-81016000D01*
X147320000Y-81015000D01*
X147367000Y-81016000D01*
G37*
X149907000Y-81016000D02*
X149954000Y-81020000D01*
X150001000Y-81026000D01*
X150047000Y-81035000D01*
X150093000Y-81046000D01*
X150138000Y-81059000D01*
X150183000Y-81075000D01*
X150226000Y-81093000D01*
X150269000Y-81113000D01*
X150310000Y-81136000D01*
X150350000Y-81160000D01*
X150389000Y-81187000D01*
X150426000Y-81216000D01*
X150462000Y-81246000D01*
X150496000Y-81279000D01*
X150529000Y-81313000D01*
X150559000Y-81349000D01*
X150588000Y-81386000D01*
X150615000Y-81425000D01*
X150639000Y-81465000D01*
X150662000Y-81506000D01*
X150682000Y-81549000D01*
X150700000Y-81592000D01*
X150716000Y-81637000D01*
X150729000Y-81682000D01*
X150740000Y-81728000D01*
X150749000Y-81774000D01*
X150755000Y-81821000D01*
X150759000Y-81868000D01*
X150760000Y-81915000D01*
X150760000Y-84415000D01*
X148960000Y-84415000D01*
X148960000Y-81915000D01*
X148961000Y-81868000D01*
X148965000Y-81821000D01*
X148971000Y-81774000D01*
X148980000Y-81728000D01*
X148991000Y-81682000D01*
X149004000Y-81637000D01*
X149020000Y-81592000D01*
X149038000Y-81549000D01*
X149058000Y-81506000D01*
X149081000Y-81465000D01*
X149105000Y-81425000D01*
X149132000Y-81386000D01*
X149161000Y-81349000D01*
X149191000Y-81313000D01*
X149224000Y-81279000D01*
X149258000Y-81246000D01*
X149294000Y-81216000D01*
X149331000Y-81187000D01*
X149370000Y-81160000D01*
X149410000Y-81136000D01*
X149451000Y-81113000D01*
X149494000Y-81093000D01*
X149537000Y-81075000D01*
X149582000Y-81059000D01*
X149627000Y-81046000D01*
X149673000Y-81035000D01*
X149719000Y-81026000D01*
X149766000Y-81020000D01*
X149813000Y-81016000D01*
X149860000Y-81015000D01*
X149907000Y-81016000D01*
G36*
X149907000Y-81016000D02*
G01*
X149954000Y-81020000D01*
X150001000Y-81026000D01*
X150047000Y-81035000D01*
X150093000Y-81046000D01*
X150138000Y-81059000D01*
X150183000Y-81075000D01*
X150226000Y-81093000D01*
X150269000Y-81113000D01*
X150310000Y-81136000D01*
X150350000Y-81160000D01*
X150389000Y-81187000D01*
X150426000Y-81216000D01*
X150462000Y-81246000D01*
X150496000Y-81279000D01*
X150529000Y-81313000D01*
X150559000Y-81349000D01*
X150588000Y-81386000D01*
X150615000Y-81425000D01*
X150639000Y-81465000D01*
X150662000Y-81506000D01*
X150682000Y-81549000D01*
X150700000Y-81592000D01*
X150716000Y-81637000D01*
X150729000Y-81682000D01*
X150740000Y-81728000D01*
X150749000Y-81774000D01*
X150755000Y-81821000D01*
X150759000Y-81868000D01*
X150760000Y-81915000D01*
X150760000Y-84415000D01*
X148960000Y-84415000D01*
X148960000Y-81915000D01*
X148961000Y-81868000D01*
X148965000Y-81821000D01*
X148971000Y-81774000D01*
X148980000Y-81728000D01*
X148991000Y-81682000D01*
X149004000Y-81637000D01*
X149020000Y-81592000D01*
X149038000Y-81549000D01*
X149058000Y-81506000D01*
X149081000Y-81465000D01*
X149105000Y-81425000D01*
X149132000Y-81386000D01*
X149161000Y-81349000D01*
X149191000Y-81313000D01*
X149224000Y-81279000D01*
X149258000Y-81246000D01*
X149294000Y-81216000D01*
X149331000Y-81187000D01*
X149370000Y-81160000D01*
X149410000Y-81136000D01*
X149451000Y-81113000D01*
X149494000Y-81093000D01*
X149537000Y-81075000D01*
X149582000Y-81059000D01*
X149627000Y-81046000D01*
X149673000Y-81035000D01*
X149719000Y-81026000D01*
X149766000Y-81020000D01*
X149813000Y-81016000D01*
X149860000Y-81015000D01*
X149907000Y-81016000D01*
G37*
X154987000Y-81016000D02*
X155034000Y-81020000D01*
X155081000Y-81026000D01*
X155127000Y-81035000D01*
X155173000Y-81046000D01*
X155218000Y-81059000D01*
X155263000Y-81075000D01*
X155306000Y-81093000D01*
X155349000Y-81113000D01*
X155390000Y-81136000D01*
X155430000Y-81160000D01*
X155469000Y-81187000D01*
X155506000Y-81216000D01*
X155542000Y-81246000D01*
X155576000Y-81279000D01*
X155609000Y-81313000D01*
X155639000Y-81349000D01*
X155668000Y-81386000D01*
X155695000Y-81425000D01*
X155719000Y-81465000D01*
X155742000Y-81506000D01*
X155762000Y-81549000D01*
X155780000Y-81592000D01*
X155796000Y-81637000D01*
X155809000Y-81682000D01*
X155820000Y-81728000D01*
X155829000Y-81774000D01*
X155835000Y-81821000D01*
X155839000Y-81868000D01*
X155840000Y-81915000D01*
X155840000Y-84415000D01*
X154040000Y-84415000D01*
X154040000Y-81915000D01*
X154041000Y-81868000D01*
X154045000Y-81821000D01*
X154051000Y-81774000D01*
X154060000Y-81728000D01*
X154071000Y-81682000D01*
X154084000Y-81637000D01*
X154100000Y-81592000D01*
X154118000Y-81549000D01*
X154138000Y-81506000D01*
X154161000Y-81465000D01*
X154185000Y-81425000D01*
X154212000Y-81386000D01*
X154241000Y-81349000D01*
X154271000Y-81313000D01*
X154304000Y-81279000D01*
X154338000Y-81246000D01*
X154374000Y-81216000D01*
X154411000Y-81187000D01*
X154450000Y-81160000D01*
X154490000Y-81136000D01*
X154531000Y-81113000D01*
X154574000Y-81093000D01*
X154617000Y-81075000D01*
X154662000Y-81059000D01*
X154707000Y-81046000D01*
X154753000Y-81035000D01*
X154799000Y-81026000D01*
X154846000Y-81020000D01*
X154893000Y-81016000D01*
X154940000Y-81015000D01*
X154987000Y-81016000D01*
G36*
X154987000Y-81016000D02*
G01*
X155034000Y-81020000D01*
X155081000Y-81026000D01*
X155127000Y-81035000D01*
X155173000Y-81046000D01*
X155218000Y-81059000D01*
X155263000Y-81075000D01*
X155306000Y-81093000D01*
X155349000Y-81113000D01*
X155390000Y-81136000D01*
X155430000Y-81160000D01*
X155469000Y-81187000D01*
X155506000Y-81216000D01*
X155542000Y-81246000D01*
X155576000Y-81279000D01*
X155609000Y-81313000D01*
X155639000Y-81349000D01*
X155668000Y-81386000D01*
X155695000Y-81425000D01*
X155719000Y-81465000D01*
X155742000Y-81506000D01*
X155762000Y-81549000D01*
X155780000Y-81592000D01*
X155796000Y-81637000D01*
X155809000Y-81682000D01*
X155820000Y-81728000D01*
X155829000Y-81774000D01*
X155835000Y-81821000D01*
X155839000Y-81868000D01*
X155840000Y-81915000D01*
X155840000Y-84415000D01*
X154040000Y-84415000D01*
X154040000Y-81915000D01*
X154041000Y-81868000D01*
X154045000Y-81821000D01*
X154051000Y-81774000D01*
X154060000Y-81728000D01*
X154071000Y-81682000D01*
X154084000Y-81637000D01*
X154100000Y-81592000D01*
X154118000Y-81549000D01*
X154138000Y-81506000D01*
X154161000Y-81465000D01*
X154185000Y-81425000D01*
X154212000Y-81386000D01*
X154241000Y-81349000D01*
X154271000Y-81313000D01*
X154304000Y-81279000D01*
X154338000Y-81246000D01*
X154374000Y-81216000D01*
X154411000Y-81187000D01*
X154450000Y-81160000D01*
X154490000Y-81136000D01*
X154531000Y-81113000D01*
X154574000Y-81093000D01*
X154617000Y-81075000D01*
X154662000Y-81059000D01*
X154707000Y-81046000D01*
X154753000Y-81035000D01*
X154799000Y-81026000D01*
X154846000Y-81020000D01*
X154893000Y-81016000D01*
X154940000Y-81015000D01*
X154987000Y-81016000D01*
G37*
X157527000Y-81016000D02*
X157574000Y-81020000D01*
X157621000Y-81026000D01*
X157667000Y-81035000D01*
X157713000Y-81046000D01*
X157758000Y-81059000D01*
X157803000Y-81075000D01*
X157846000Y-81093000D01*
X157889000Y-81113000D01*
X157930000Y-81136000D01*
X157970000Y-81160000D01*
X158009000Y-81187000D01*
X158046000Y-81216000D01*
X158082000Y-81246000D01*
X158116000Y-81279000D01*
X158149000Y-81313000D01*
X158179000Y-81349000D01*
X158208000Y-81386000D01*
X158235000Y-81425000D01*
X158259000Y-81465000D01*
X158282000Y-81506000D01*
X158302000Y-81549000D01*
X158320000Y-81592000D01*
X158336000Y-81637000D01*
X158349000Y-81682000D01*
X158360000Y-81728000D01*
X158369000Y-81774000D01*
X158375000Y-81821000D01*
X158379000Y-81868000D01*
X158380000Y-81915000D01*
X158380000Y-84415000D01*
X156580000Y-84415000D01*
X156580000Y-81915000D01*
X156581000Y-81868000D01*
X156585000Y-81821000D01*
X156591000Y-81774000D01*
X156600000Y-81728000D01*
X156611000Y-81682000D01*
X156624000Y-81637000D01*
X156640000Y-81592000D01*
X156658000Y-81549000D01*
X156678000Y-81506000D01*
X156701000Y-81465000D01*
X156725000Y-81425000D01*
X156752000Y-81386000D01*
X156781000Y-81349000D01*
X156811000Y-81313000D01*
X156844000Y-81279000D01*
X156878000Y-81246000D01*
X156914000Y-81216000D01*
X156951000Y-81187000D01*
X156990000Y-81160000D01*
X157030000Y-81136000D01*
X157071000Y-81113000D01*
X157114000Y-81093000D01*
X157157000Y-81075000D01*
X157202000Y-81059000D01*
X157247000Y-81046000D01*
X157293000Y-81035000D01*
X157339000Y-81026000D01*
X157386000Y-81020000D01*
X157433000Y-81016000D01*
X157480000Y-81015000D01*
X157527000Y-81016000D01*
G36*
X157527000Y-81016000D02*
G01*
X157574000Y-81020000D01*
X157621000Y-81026000D01*
X157667000Y-81035000D01*
X157713000Y-81046000D01*
X157758000Y-81059000D01*
X157803000Y-81075000D01*
X157846000Y-81093000D01*
X157889000Y-81113000D01*
X157930000Y-81136000D01*
X157970000Y-81160000D01*
X158009000Y-81187000D01*
X158046000Y-81216000D01*
X158082000Y-81246000D01*
X158116000Y-81279000D01*
X158149000Y-81313000D01*
X158179000Y-81349000D01*
X158208000Y-81386000D01*
X158235000Y-81425000D01*
X158259000Y-81465000D01*
X158282000Y-81506000D01*
X158302000Y-81549000D01*
X158320000Y-81592000D01*
X158336000Y-81637000D01*
X158349000Y-81682000D01*
X158360000Y-81728000D01*
X158369000Y-81774000D01*
X158375000Y-81821000D01*
X158379000Y-81868000D01*
X158380000Y-81915000D01*
X158380000Y-84415000D01*
X156580000Y-84415000D01*
X156580000Y-81915000D01*
X156581000Y-81868000D01*
X156585000Y-81821000D01*
X156591000Y-81774000D01*
X156600000Y-81728000D01*
X156611000Y-81682000D01*
X156624000Y-81637000D01*
X156640000Y-81592000D01*
X156658000Y-81549000D01*
X156678000Y-81506000D01*
X156701000Y-81465000D01*
X156725000Y-81425000D01*
X156752000Y-81386000D01*
X156781000Y-81349000D01*
X156811000Y-81313000D01*
X156844000Y-81279000D01*
X156878000Y-81246000D01*
X156914000Y-81216000D01*
X156951000Y-81187000D01*
X156990000Y-81160000D01*
X157030000Y-81136000D01*
X157071000Y-81113000D01*
X157114000Y-81093000D01*
X157157000Y-81075000D01*
X157202000Y-81059000D01*
X157247000Y-81046000D01*
X157293000Y-81035000D01*
X157339000Y-81026000D01*
X157386000Y-81020000D01*
X157433000Y-81016000D01*
X157480000Y-81015000D01*
X157527000Y-81016000D01*
G37*
X160067000Y-81016000D02*
X160114000Y-81020000D01*
X160161000Y-81026000D01*
X160207000Y-81035000D01*
X160253000Y-81046000D01*
X160298000Y-81059000D01*
X160343000Y-81075000D01*
X160386000Y-81093000D01*
X160429000Y-81113000D01*
X160470000Y-81136000D01*
X160510000Y-81160000D01*
X160549000Y-81187000D01*
X160586000Y-81216000D01*
X160622000Y-81246000D01*
X160656000Y-81279000D01*
X160689000Y-81313000D01*
X160719000Y-81349000D01*
X160748000Y-81386000D01*
X160775000Y-81425000D01*
X160799000Y-81465000D01*
X160822000Y-81506000D01*
X160842000Y-81549000D01*
X160860000Y-81592000D01*
X160876000Y-81637000D01*
X160889000Y-81682000D01*
X160900000Y-81728000D01*
X160909000Y-81774000D01*
X160915000Y-81821000D01*
X160919000Y-81868000D01*
X160920000Y-81915000D01*
X160920000Y-84415000D01*
X159120000Y-84415000D01*
X159120000Y-81915000D01*
X159121000Y-81868000D01*
X159125000Y-81821000D01*
X159131000Y-81774000D01*
X159140000Y-81728000D01*
X159151000Y-81682000D01*
X159164000Y-81637000D01*
X159180000Y-81592000D01*
X159198000Y-81549000D01*
X159218000Y-81506000D01*
X159241000Y-81465000D01*
X159265000Y-81425000D01*
X159292000Y-81386000D01*
X159321000Y-81349000D01*
X159351000Y-81313000D01*
X159384000Y-81279000D01*
X159418000Y-81246000D01*
X159454000Y-81216000D01*
X159491000Y-81187000D01*
X159530000Y-81160000D01*
X159570000Y-81136000D01*
X159611000Y-81113000D01*
X159654000Y-81093000D01*
X159697000Y-81075000D01*
X159742000Y-81059000D01*
X159787000Y-81046000D01*
X159833000Y-81035000D01*
X159879000Y-81026000D01*
X159926000Y-81020000D01*
X159973000Y-81016000D01*
X160020000Y-81015000D01*
X160067000Y-81016000D01*
G36*
X160067000Y-81016000D02*
G01*
X160114000Y-81020000D01*
X160161000Y-81026000D01*
X160207000Y-81035000D01*
X160253000Y-81046000D01*
X160298000Y-81059000D01*
X160343000Y-81075000D01*
X160386000Y-81093000D01*
X160429000Y-81113000D01*
X160470000Y-81136000D01*
X160510000Y-81160000D01*
X160549000Y-81187000D01*
X160586000Y-81216000D01*
X160622000Y-81246000D01*
X160656000Y-81279000D01*
X160689000Y-81313000D01*
X160719000Y-81349000D01*
X160748000Y-81386000D01*
X160775000Y-81425000D01*
X160799000Y-81465000D01*
X160822000Y-81506000D01*
X160842000Y-81549000D01*
X160860000Y-81592000D01*
X160876000Y-81637000D01*
X160889000Y-81682000D01*
X160900000Y-81728000D01*
X160909000Y-81774000D01*
X160915000Y-81821000D01*
X160919000Y-81868000D01*
X160920000Y-81915000D01*
X160920000Y-84415000D01*
X159120000Y-84415000D01*
X159120000Y-81915000D01*
X159121000Y-81868000D01*
X159125000Y-81821000D01*
X159131000Y-81774000D01*
X159140000Y-81728000D01*
X159151000Y-81682000D01*
X159164000Y-81637000D01*
X159180000Y-81592000D01*
X159198000Y-81549000D01*
X159218000Y-81506000D01*
X159241000Y-81465000D01*
X159265000Y-81425000D01*
X159292000Y-81386000D01*
X159321000Y-81349000D01*
X159351000Y-81313000D01*
X159384000Y-81279000D01*
X159418000Y-81246000D01*
X159454000Y-81216000D01*
X159491000Y-81187000D01*
X159530000Y-81160000D01*
X159570000Y-81136000D01*
X159611000Y-81113000D01*
X159654000Y-81093000D01*
X159697000Y-81075000D01*
X159742000Y-81059000D01*
X159787000Y-81046000D01*
X159833000Y-81035000D01*
X159879000Y-81026000D01*
X159926000Y-81020000D01*
X159973000Y-81016000D01*
X160020000Y-81015000D01*
X160067000Y-81016000D01*
G37*
X162607000Y-81016000D02*
X162654000Y-81020000D01*
X162701000Y-81026000D01*
X162747000Y-81035000D01*
X162793000Y-81046000D01*
X162838000Y-81059000D01*
X162883000Y-81075000D01*
X162926000Y-81093000D01*
X162969000Y-81113000D01*
X163010000Y-81136000D01*
X163050000Y-81160000D01*
X163089000Y-81187000D01*
X163126000Y-81216000D01*
X163162000Y-81246000D01*
X163196000Y-81279000D01*
X163229000Y-81313000D01*
X163259000Y-81349000D01*
X163288000Y-81386000D01*
X163315000Y-81425000D01*
X163339000Y-81465000D01*
X163362000Y-81506000D01*
X163382000Y-81549000D01*
X163400000Y-81592000D01*
X163416000Y-81637000D01*
X163429000Y-81682000D01*
X163440000Y-81728000D01*
X163449000Y-81774000D01*
X163455000Y-81821000D01*
X163459000Y-81868000D01*
X163460000Y-81915000D01*
X163460000Y-84415000D01*
X161660000Y-84415000D01*
X161660000Y-81915000D01*
X161661000Y-81868000D01*
X161665000Y-81821000D01*
X161671000Y-81774000D01*
X161680000Y-81728000D01*
X161691000Y-81682000D01*
X161704000Y-81637000D01*
X161720000Y-81592000D01*
X161738000Y-81549000D01*
X161758000Y-81506000D01*
X161781000Y-81465000D01*
X161805000Y-81425000D01*
X161832000Y-81386000D01*
X161861000Y-81349000D01*
X161891000Y-81313000D01*
X161924000Y-81279000D01*
X161958000Y-81246000D01*
X161994000Y-81216000D01*
X162031000Y-81187000D01*
X162070000Y-81160000D01*
X162110000Y-81136000D01*
X162151000Y-81113000D01*
X162194000Y-81093000D01*
X162237000Y-81075000D01*
X162282000Y-81059000D01*
X162327000Y-81046000D01*
X162373000Y-81035000D01*
X162419000Y-81026000D01*
X162466000Y-81020000D01*
X162513000Y-81016000D01*
X162560000Y-81015000D01*
X162607000Y-81016000D01*
G36*
X162607000Y-81016000D02*
G01*
X162654000Y-81020000D01*
X162701000Y-81026000D01*
X162747000Y-81035000D01*
X162793000Y-81046000D01*
X162838000Y-81059000D01*
X162883000Y-81075000D01*
X162926000Y-81093000D01*
X162969000Y-81113000D01*
X163010000Y-81136000D01*
X163050000Y-81160000D01*
X163089000Y-81187000D01*
X163126000Y-81216000D01*
X163162000Y-81246000D01*
X163196000Y-81279000D01*
X163229000Y-81313000D01*
X163259000Y-81349000D01*
X163288000Y-81386000D01*
X163315000Y-81425000D01*
X163339000Y-81465000D01*
X163362000Y-81506000D01*
X163382000Y-81549000D01*
X163400000Y-81592000D01*
X163416000Y-81637000D01*
X163429000Y-81682000D01*
X163440000Y-81728000D01*
X163449000Y-81774000D01*
X163455000Y-81821000D01*
X163459000Y-81868000D01*
X163460000Y-81915000D01*
X163460000Y-84415000D01*
X161660000Y-84415000D01*
X161660000Y-81915000D01*
X161661000Y-81868000D01*
X161665000Y-81821000D01*
X161671000Y-81774000D01*
X161680000Y-81728000D01*
X161691000Y-81682000D01*
X161704000Y-81637000D01*
X161720000Y-81592000D01*
X161738000Y-81549000D01*
X161758000Y-81506000D01*
X161781000Y-81465000D01*
X161805000Y-81425000D01*
X161832000Y-81386000D01*
X161861000Y-81349000D01*
X161891000Y-81313000D01*
X161924000Y-81279000D01*
X161958000Y-81246000D01*
X161994000Y-81216000D01*
X162031000Y-81187000D01*
X162070000Y-81160000D01*
X162110000Y-81136000D01*
X162151000Y-81113000D01*
X162194000Y-81093000D01*
X162237000Y-81075000D01*
X162282000Y-81059000D01*
X162327000Y-81046000D01*
X162373000Y-81035000D01*
X162419000Y-81026000D01*
X162466000Y-81020000D01*
X162513000Y-81016000D01*
X162560000Y-81015000D01*
X162607000Y-81016000D01*
G37*
X167687000Y-81016000D02*
X167734000Y-81020000D01*
X167781000Y-81026000D01*
X167827000Y-81035000D01*
X167873000Y-81046000D01*
X167918000Y-81059000D01*
X167963000Y-81075000D01*
X168006000Y-81093000D01*
X168049000Y-81113000D01*
X168090000Y-81136000D01*
X168130000Y-81160000D01*
X168169000Y-81187000D01*
X168206000Y-81216000D01*
X168242000Y-81246000D01*
X168276000Y-81279000D01*
X168309000Y-81313000D01*
X168339000Y-81349000D01*
X168368000Y-81386000D01*
X168395000Y-81425000D01*
X168419000Y-81465000D01*
X168442000Y-81506000D01*
X168462000Y-81549000D01*
X168480000Y-81592000D01*
X168496000Y-81637000D01*
X168509000Y-81682000D01*
X168520000Y-81728000D01*
X168529000Y-81774000D01*
X168535000Y-81821000D01*
X168539000Y-81868000D01*
X168540000Y-81915000D01*
X168540000Y-84415000D01*
X166740000Y-84415000D01*
X166740000Y-81915000D01*
X166741000Y-81868000D01*
X166745000Y-81821000D01*
X166751000Y-81774000D01*
X166760000Y-81728000D01*
X166771000Y-81682000D01*
X166784000Y-81637000D01*
X166800000Y-81592000D01*
X166818000Y-81549000D01*
X166838000Y-81506000D01*
X166861000Y-81465000D01*
X166885000Y-81425000D01*
X166912000Y-81386000D01*
X166941000Y-81349000D01*
X166971000Y-81313000D01*
X167004000Y-81279000D01*
X167038000Y-81246000D01*
X167074000Y-81216000D01*
X167111000Y-81187000D01*
X167150000Y-81160000D01*
X167190000Y-81136000D01*
X167231000Y-81113000D01*
X167274000Y-81093000D01*
X167317000Y-81075000D01*
X167362000Y-81059000D01*
X167407000Y-81046000D01*
X167453000Y-81035000D01*
X167499000Y-81026000D01*
X167546000Y-81020000D01*
X167593000Y-81016000D01*
X167640000Y-81015000D01*
X167687000Y-81016000D01*
G36*
X167687000Y-81016000D02*
G01*
X167734000Y-81020000D01*
X167781000Y-81026000D01*
X167827000Y-81035000D01*
X167873000Y-81046000D01*
X167918000Y-81059000D01*
X167963000Y-81075000D01*
X168006000Y-81093000D01*
X168049000Y-81113000D01*
X168090000Y-81136000D01*
X168130000Y-81160000D01*
X168169000Y-81187000D01*
X168206000Y-81216000D01*
X168242000Y-81246000D01*
X168276000Y-81279000D01*
X168309000Y-81313000D01*
X168339000Y-81349000D01*
X168368000Y-81386000D01*
X168395000Y-81425000D01*
X168419000Y-81465000D01*
X168442000Y-81506000D01*
X168462000Y-81549000D01*
X168480000Y-81592000D01*
X168496000Y-81637000D01*
X168509000Y-81682000D01*
X168520000Y-81728000D01*
X168529000Y-81774000D01*
X168535000Y-81821000D01*
X168539000Y-81868000D01*
X168540000Y-81915000D01*
X168540000Y-84415000D01*
X166740000Y-84415000D01*
X166740000Y-81915000D01*
X166741000Y-81868000D01*
X166745000Y-81821000D01*
X166751000Y-81774000D01*
X166760000Y-81728000D01*
X166771000Y-81682000D01*
X166784000Y-81637000D01*
X166800000Y-81592000D01*
X166818000Y-81549000D01*
X166838000Y-81506000D01*
X166861000Y-81465000D01*
X166885000Y-81425000D01*
X166912000Y-81386000D01*
X166941000Y-81349000D01*
X166971000Y-81313000D01*
X167004000Y-81279000D01*
X167038000Y-81246000D01*
X167074000Y-81216000D01*
X167111000Y-81187000D01*
X167150000Y-81160000D01*
X167190000Y-81136000D01*
X167231000Y-81113000D01*
X167274000Y-81093000D01*
X167317000Y-81075000D01*
X167362000Y-81059000D01*
X167407000Y-81046000D01*
X167453000Y-81035000D01*
X167499000Y-81026000D01*
X167546000Y-81020000D01*
X167593000Y-81016000D01*
X167640000Y-81015000D01*
X167687000Y-81016000D01*
G37*
X170227000Y-81016000D02*
X170274000Y-81020000D01*
X170321000Y-81026000D01*
X170367000Y-81035000D01*
X170413000Y-81046000D01*
X170458000Y-81059000D01*
X170503000Y-81075000D01*
X170546000Y-81093000D01*
X170589000Y-81113000D01*
X170630000Y-81136000D01*
X170670000Y-81160000D01*
X170709000Y-81187000D01*
X170746000Y-81216000D01*
X170782000Y-81246000D01*
X170816000Y-81279000D01*
X170849000Y-81313000D01*
X170879000Y-81349000D01*
X170908000Y-81386000D01*
X170935000Y-81425000D01*
X170959000Y-81465000D01*
X170982000Y-81506000D01*
X171002000Y-81549000D01*
X171020000Y-81592000D01*
X171036000Y-81637000D01*
X171049000Y-81682000D01*
X171060000Y-81728000D01*
X171069000Y-81774000D01*
X171075000Y-81821000D01*
X171079000Y-81868000D01*
X171080000Y-81915000D01*
X171080000Y-84415000D01*
X169280000Y-84415000D01*
X169280000Y-81915000D01*
X169281000Y-81868000D01*
X169285000Y-81821000D01*
X169291000Y-81774000D01*
X169300000Y-81728000D01*
X169311000Y-81682000D01*
X169324000Y-81637000D01*
X169340000Y-81592000D01*
X169358000Y-81549000D01*
X169378000Y-81506000D01*
X169401000Y-81465000D01*
X169425000Y-81425000D01*
X169452000Y-81386000D01*
X169481000Y-81349000D01*
X169511000Y-81313000D01*
X169544000Y-81279000D01*
X169578000Y-81246000D01*
X169614000Y-81216000D01*
X169651000Y-81187000D01*
X169690000Y-81160000D01*
X169730000Y-81136000D01*
X169771000Y-81113000D01*
X169814000Y-81093000D01*
X169857000Y-81075000D01*
X169902000Y-81059000D01*
X169947000Y-81046000D01*
X169993000Y-81035000D01*
X170039000Y-81026000D01*
X170086000Y-81020000D01*
X170133000Y-81016000D01*
X170180000Y-81015000D01*
X170227000Y-81016000D01*
G36*
X170227000Y-81016000D02*
G01*
X170274000Y-81020000D01*
X170321000Y-81026000D01*
X170367000Y-81035000D01*
X170413000Y-81046000D01*
X170458000Y-81059000D01*
X170503000Y-81075000D01*
X170546000Y-81093000D01*
X170589000Y-81113000D01*
X170630000Y-81136000D01*
X170670000Y-81160000D01*
X170709000Y-81187000D01*
X170746000Y-81216000D01*
X170782000Y-81246000D01*
X170816000Y-81279000D01*
X170849000Y-81313000D01*
X170879000Y-81349000D01*
X170908000Y-81386000D01*
X170935000Y-81425000D01*
X170959000Y-81465000D01*
X170982000Y-81506000D01*
X171002000Y-81549000D01*
X171020000Y-81592000D01*
X171036000Y-81637000D01*
X171049000Y-81682000D01*
X171060000Y-81728000D01*
X171069000Y-81774000D01*
X171075000Y-81821000D01*
X171079000Y-81868000D01*
X171080000Y-81915000D01*
X171080000Y-84415000D01*
X169280000Y-84415000D01*
X169280000Y-81915000D01*
X169281000Y-81868000D01*
X169285000Y-81821000D01*
X169291000Y-81774000D01*
X169300000Y-81728000D01*
X169311000Y-81682000D01*
X169324000Y-81637000D01*
X169340000Y-81592000D01*
X169358000Y-81549000D01*
X169378000Y-81506000D01*
X169401000Y-81465000D01*
X169425000Y-81425000D01*
X169452000Y-81386000D01*
X169481000Y-81349000D01*
X169511000Y-81313000D01*
X169544000Y-81279000D01*
X169578000Y-81246000D01*
X169614000Y-81216000D01*
X169651000Y-81187000D01*
X169690000Y-81160000D01*
X169730000Y-81136000D01*
X169771000Y-81113000D01*
X169814000Y-81093000D01*
X169857000Y-81075000D01*
X169902000Y-81059000D01*
X169947000Y-81046000D01*
X169993000Y-81035000D01*
X170039000Y-81026000D01*
X170086000Y-81020000D01*
X170133000Y-81016000D01*
X170180000Y-81015000D01*
X170227000Y-81016000D01*
G37*
X172767000Y-81016000D02*
X172814000Y-81020000D01*
X172861000Y-81026000D01*
X172907000Y-81035000D01*
X172953000Y-81046000D01*
X172998000Y-81059000D01*
X173043000Y-81075000D01*
X173086000Y-81093000D01*
X173129000Y-81113000D01*
X173170000Y-81136000D01*
X173210000Y-81160000D01*
X173249000Y-81187000D01*
X173286000Y-81216000D01*
X173322000Y-81246000D01*
X173356000Y-81279000D01*
X173389000Y-81313000D01*
X173419000Y-81349000D01*
X173448000Y-81386000D01*
X173475000Y-81425000D01*
X173499000Y-81465000D01*
X173522000Y-81506000D01*
X173542000Y-81549000D01*
X173560000Y-81592000D01*
X173576000Y-81637000D01*
X173589000Y-81682000D01*
X173600000Y-81728000D01*
X173609000Y-81774000D01*
X173615000Y-81821000D01*
X173619000Y-81868000D01*
X173620000Y-81915000D01*
X173620000Y-84415000D01*
X171820000Y-84415000D01*
X171820000Y-81915000D01*
X171821000Y-81868000D01*
X171825000Y-81821000D01*
X171831000Y-81774000D01*
X171840000Y-81728000D01*
X171851000Y-81682000D01*
X171864000Y-81637000D01*
X171880000Y-81592000D01*
X171898000Y-81549000D01*
X171918000Y-81506000D01*
X171941000Y-81465000D01*
X171965000Y-81425000D01*
X171992000Y-81386000D01*
X172021000Y-81349000D01*
X172051000Y-81313000D01*
X172084000Y-81279000D01*
X172118000Y-81246000D01*
X172154000Y-81216000D01*
X172191000Y-81187000D01*
X172230000Y-81160000D01*
X172270000Y-81136000D01*
X172311000Y-81113000D01*
X172354000Y-81093000D01*
X172397000Y-81075000D01*
X172442000Y-81059000D01*
X172487000Y-81046000D01*
X172533000Y-81035000D01*
X172579000Y-81026000D01*
X172626000Y-81020000D01*
X172673000Y-81016000D01*
X172720000Y-81015000D01*
X172767000Y-81016000D01*
G36*
X172767000Y-81016000D02*
G01*
X172814000Y-81020000D01*
X172861000Y-81026000D01*
X172907000Y-81035000D01*
X172953000Y-81046000D01*
X172998000Y-81059000D01*
X173043000Y-81075000D01*
X173086000Y-81093000D01*
X173129000Y-81113000D01*
X173170000Y-81136000D01*
X173210000Y-81160000D01*
X173249000Y-81187000D01*
X173286000Y-81216000D01*
X173322000Y-81246000D01*
X173356000Y-81279000D01*
X173389000Y-81313000D01*
X173419000Y-81349000D01*
X173448000Y-81386000D01*
X173475000Y-81425000D01*
X173499000Y-81465000D01*
X173522000Y-81506000D01*
X173542000Y-81549000D01*
X173560000Y-81592000D01*
X173576000Y-81637000D01*
X173589000Y-81682000D01*
X173600000Y-81728000D01*
X173609000Y-81774000D01*
X173615000Y-81821000D01*
X173619000Y-81868000D01*
X173620000Y-81915000D01*
X173620000Y-84415000D01*
X171820000Y-84415000D01*
X171820000Y-81915000D01*
X171821000Y-81868000D01*
X171825000Y-81821000D01*
X171831000Y-81774000D01*
X171840000Y-81728000D01*
X171851000Y-81682000D01*
X171864000Y-81637000D01*
X171880000Y-81592000D01*
X171898000Y-81549000D01*
X171918000Y-81506000D01*
X171941000Y-81465000D01*
X171965000Y-81425000D01*
X171992000Y-81386000D01*
X172021000Y-81349000D01*
X172051000Y-81313000D01*
X172084000Y-81279000D01*
X172118000Y-81246000D01*
X172154000Y-81216000D01*
X172191000Y-81187000D01*
X172230000Y-81160000D01*
X172270000Y-81136000D01*
X172311000Y-81113000D01*
X172354000Y-81093000D01*
X172397000Y-81075000D01*
X172442000Y-81059000D01*
X172487000Y-81046000D01*
X172533000Y-81035000D01*
X172579000Y-81026000D01*
X172626000Y-81020000D01*
X172673000Y-81016000D01*
X172720000Y-81015000D01*
X172767000Y-81016000D01*
G37*
X175307000Y-81016000D02*
X175354000Y-81020000D01*
X175401000Y-81026000D01*
X175447000Y-81035000D01*
X175493000Y-81046000D01*
X175538000Y-81059000D01*
X175583000Y-81075000D01*
X175626000Y-81093000D01*
X175669000Y-81113000D01*
X175710000Y-81136000D01*
X175750000Y-81160000D01*
X175789000Y-81187000D01*
X175826000Y-81216000D01*
X175862000Y-81246000D01*
X175896000Y-81279000D01*
X175929000Y-81313000D01*
X175959000Y-81349000D01*
X175988000Y-81386000D01*
X176015000Y-81425000D01*
X176039000Y-81465000D01*
X176062000Y-81506000D01*
X176082000Y-81549000D01*
X176100000Y-81592000D01*
X176116000Y-81637000D01*
X176129000Y-81682000D01*
X176140000Y-81728000D01*
X176149000Y-81774000D01*
X176155000Y-81821000D01*
X176159000Y-81868000D01*
X176160000Y-81915000D01*
X176160000Y-84415000D01*
X174360000Y-84415000D01*
X174360000Y-81915000D01*
X174361000Y-81868000D01*
X174365000Y-81821000D01*
X174371000Y-81774000D01*
X174380000Y-81728000D01*
X174391000Y-81682000D01*
X174404000Y-81637000D01*
X174420000Y-81592000D01*
X174438000Y-81549000D01*
X174458000Y-81506000D01*
X174481000Y-81465000D01*
X174505000Y-81425000D01*
X174532000Y-81386000D01*
X174561000Y-81349000D01*
X174591000Y-81313000D01*
X174624000Y-81279000D01*
X174658000Y-81246000D01*
X174694000Y-81216000D01*
X174731000Y-81187000D01*
X174770000Y-81160000D01*
X174810000Y-81136000D01*
X174851000Y-81113000D01*
X174894000Y-81093000D01*
X174937000Y-81075000D01*
X174982000Y-81059000D01*
X175027000Y-81046000D01*
X175073000Y-81035000D01*
X175119000Y-81026000D01*
X175166000Y-81020000D01*
X175213000Y-81016000D01*
X175260000Y-81015000D01*
X175307000Y-81016000D01*
G36*
X175307000Y-81016000D02*
G01*
X175354000Y-81020000D01*
X175401000Y-81026000D01*
X175447000Y-81035000D01*
X175493000Y-81046000D01*
X175538000Y-81059000D01*
X175583000Y-81075000D01*
X175626000Y-81093000D01*
X175669000Y-81113000D01*
X175710000Y-81136000D01*
X175750000Y-81160000D01*
X175789000Y-81187000D01*
X175826000Y-81216000D01*
X175862000Y-81246000D01*
X175896000Y-81279000D01*
X175929000Y-81313000D01*
X175959000Y-81349000D01*
X175988000Y-81386000D01*
X176015000Y-81425000D01*
X176039000Y-81465000D01*
X176062000Y-81506000D01*
X176082000Y-81549000D01*
X176100000Y-81592000D01*
X176116000Y-81637000D01*
X176129000Y-81682000D01*
X176140000Y-81728000D01*
X176149000Y-81774000D01*
X176155000Y-81821000D01*
X176159000Y-81868000D01*
X176160000Y-81915000D01*
X176160000Y-84415000D01*
X174360000Y-84415000D01*
X174360000Y-81915000D01*
X174361000Y-81868000D01*
X174365000Y-81821000D01*
X174371000Y-81774000D01*
X174380000Y-81728000D01*
X174391000Y-81682000D01*
X174404000Y-81637000D01*
X174420000Y-81592000D01*
X174438000Y-81549000D01*
X174458000Y-81506000D01*
X174481000Y-81465000D01*
X174505000Y-81425000D01*
X174532000Y-81386000D01*
X174561000Y-81349000D01*
X174591000Y-81313000D01*
X174624000Y-81279000D01*
X174658000Y-81246000D01*
X174694000Y-81216000D01*
X174731000Y-81187000D01*
X174770000Y-81160000D01*
X174810000Y-81136000D01*
X174851000Y-81113000D01*
X174894000Y-81093000D01*
X174937000Y-81075000D01*
X174982000Y-81059000D01*
X175027000Y-81046000D01*
X175073000Y-81035000D01*
X175119000Y-81026000D01*
X175166000Y-81020000D01*
X175213000Y-81016000D01*
X175260000Y-81015000D01*
X175307000Y-81016000D01*
G37*
X180387000Y-81016000D02*
X180434000Y-81020000D01*
X180481000Y-81026000D01*
X180527000Y-81035000D01*
X180573000Y-81046000D01*
X180618000Y-81059000D01*
X180663000Y-81075000D01*
X180706000Y-81093000D01*
X180749000Y-81113000D01*
X180790000Y-81136000D01*
X180830000Y-81160000D01*
X180869000Y-81187000D01*
X180906000Y-81216000D01*
X180942000Y-81246000D01*
X180976000Y-81279000D01*
X181009000Y-81313000D01*
X181039000Y-81349000D01*
X181068000Y-81386000D01*
X181095000Y-81425000D01*
X181119000Y-81465000D01*
X181142000Y-81506000D01*
X181162000Y-81549000D01*
X181180000Y-81592000D01*
X181196000Y-81637000D01*
X181209000Y-81682000D01*
X181220000Y-81728000D01*
X181229000Y-81774000D01*
X181235000Y-81821000D01*
X181239000Y-81868000D01*
X181240000Y-81915000D01*
X181240000Y-84415000D01*
X179440000Y-84415000D01*
X179440000Y-81915000D01*
X179441000Y-81868000D01*
X179445000Y-81821000D01*
X179451000Y-81774000D01*
X179460000Y-81728000D01*
X179471000Y-81682000D01*
X179484000Y-81637000D01*
X179500000Y-81592000D01*
X179518000Y-81549000D01*
X179538000Y-81506000D01*
X179561000Y-81465000D01*
X179585000Y-81425000D01*
X179612000Y-81386000D01*
X179641000Y-81349000D01*
X179671000Y-81313000D01*
X179704000Y-81279000D01*
X179738000Y-81246000D01*
X179774000Y-81216000D01*
X179811000Y-81187000D01*
X179850000Y-81160000D01*
X179890000Y-81136000D01*
X179931000Y-81113000D01*
X179974000Y-81093000D01*
X180017000Y-81075000D01*
X180062000Y-81059000D01*
X180107000Y-81046000D01*
X180153000Y-81035000D01*
X180199000Y-81026000D01*
X180246000Y-81020000D01*
X180293000Y-81016000D01*
X180340000Y-81015000D01*
X180387000Y-81016000D01*
G36*
X180387000Y-81016000D02*
G01*
X180434000Y-81020000D01*
X180481000Y-81026000D01*
X180527000Y-81035000D01*
X180573000Y-81046000D01*
X180618000Y-81059000D01*
X180663000Y-81075000D01*
X180706000Y-81093000D01*
X180749000Y-81113000D01*
X180790000Y-81136000D01*
X180830000Y-81160000D01*
X180869000Y-81187000D01*
X180906000Y-81216000D01*
X180942000Y-81246000D01*
X180976000Y-81279000D01*
X181009000Y-81313000D01*
X181039000Y-81349000D01*
X181068000Y-81386000D01*
X181095000Y-81425000D01*
X181119000Y-81465000D01*
X181142000Y-81506000D01*
X181162000Y-81549000D01*
X181180000Y-81592000D01*
X181196000Y-81637000D01*
X181209000Y-81682000D01*
X181220000Y-81728000D01*
X181229000Y-81774000D01*
X181235000Y-81821000D01*
X181239000Y-81868000D01*
X181240000Y-81915000D01*
X181240000Y-84415000D01*
X179440000Y-84415000D01*
X179440000Y-81915000D01*
X179441000Y-81868000D01*
X179445000Y-81821000D01*
X179451000Y-81774000D01*
X179460000Y-81728000D01*
X179471000Y-81682000D01*
X179484000Y-81637000D01*
X179500000Y-81592000D01*
X179518000Y-81549000D01*
X179538000Y-81506000D01*
X179561000Y-81465000D01*
X179585000Y-81425000D01*
X179612000Y-81386000D01*
X179641000Y-81349000D01*
X179671000Y-81313000D01*
X179704000Y-81279000D01*
X179738000Y-81246000D01*
X179774000Y-81216000D01*
X179811000Y-81187000D01*
X179850000Y-81160000D01*
X179890000Y-81136000D01*
X179931000Y-81113000D01*
X179974000Y-81093000D01*
X180017000Y-81075000D01*
X180062000Y-81059000D01*
X180107000Y-81046000D01*
X180153000Y-81035000D01*
X180199000Y-81026000D01*
X180246000Y-81020000D01*
X180293000Y-81016000D01*
X180340000Y-81015000D01*
X180387000Y-81016000D01*
G37*
X182927000Y-81016000D02*
X182974000Y-81020000D01*
X183021000Y-81026000D01*
X183067000Y-81035000D01*
X183113000Y-81046000D01*
X183158000Y-81059000D01*
X183203000Y-81075000D01*
X183246000Y-81093000D01*
X183289000Y-81113000D01*
X183330000Y-81136000D01*
X183370000Y-81160000D01*
X183409000Y-81187000D01*
X183446000Y-81216000D01*
X183482000Y-81246000D01*
X183516000Y-81279000D01*
X183549000Y-81313000D01*
X183579000Y-81349000D01*
X183608000Y-81386000D01*
X183635000Y-81425000D01*
X183659000Y-81465000D01*
X183682000Y-81506000D01*
X183702000Y-81549000D01*
X183720000Y-81592000D01*
X183736000Y-81637000D01*
X183749000Y-81682000D01*
X183760000Y-81728000D01*
X183769000Y-81774000D01*
X183775000Y-81821000D01*
X183779000Y-81868000D01*
X183780000Y-81915000D01*
X183780000Y-84415000D01*
X181980000Y-84415000D01*
X181980000Y-81915000D01*
X181981000Y-81868000D01*
X181985000Y-81821000D01*
X181991000Y-81774000D01*
X182000000Y-81728000D01*
X182011000Y-81682000D01*
X182024000Y-81637000D01*
X182040000Y-81592000D01*
X182058000Y-81549000D01*
X182078000Y-81506000D01*
X182101000Y-81465000D01*
X182125000Y-81425000D01*
X182152000Y-81386000D01*
X182181000Y-81349000D01*
X182211000Y-81313000D01*
X182244000Y-81279000D01*
X182278000Y-81246000D01*
X182314000Y-81216000D01*
X182351000Y-81187000D01*
X182390000Y-81160000D01*
X182430000Y-81136000D01*
X182471000Y-81113000D01*
X182514000Y-81093000D01*
X182557000Y-81075000D01*
X182602000Y-81059000D01*
X182647000Y-81046000D01*
X182693000Y-81035000D01*
X182739000Y-81026000D01*
X182786000Y-81020000D01*
X182833000Y-81016000D01*
X182880000Y-81015000D01*
X182927000Y-81016000D01*
G36*
X182927000Y-81016000D02*
G01*
X182974000Y-81020000D01*
X183021000Y-81026000D01*
X183067000Y-81035000D01*
X183113000Y-81046000D01*
X183158000Y-81059000D01*
X183203000Y-81075000D01*
X183246000Y-81093000D01*
X183289000Y-81113000D01*
X183330000Y-81136000D01*
X183370000Y-81160000D01*
X183409000Y-81187000D01*
X183446000Y-81216000D01*
X183482000Y-81246000D01*
X183516000Y-81279000D01*
X183549000Y-81313000D01*
X183579000Y-81349000D01*
X183608000Y-81386000D01*
X183635000Y-81425000D01*
X183659000Y-81465000D01*
X183682000Y-81506000D01*
X183702000Y-81549000D01*
X183720000Y-81592000D01*
X183736000Y-81637000D01*
X183749000Y-81682000D01*
X183760000Y-81728000D01*
X183769000Y-81774000D01*
X183775000Y-81821000D01*
X183779000Y-81868000D01*
X183780000Y-81915000D01*
X183780000Y-84415000D01*
X181980000Y-84415000D01*
X181980000Y-81915000D01*
X181981000Y-81868000D01*
X181985000Y-81821000D01*
X181991000Y-81774000D01*
X182000000Y-81728000D01*
X182011000Y-81682000D01*
X182024000Y-81637000D01*
X182040000Y-81592000D01*
X182058000Y-81549000D01*
X182078000Y-81506000D01*
X182101000Y-81465000D01*
X182125000Y-81425000D01*
X182152000Y-81386000D01*
X182181000Y-81349000D01*
X182211000Y-81313000D01*
X182244000Y-81279000D01*
X182278000Y-81246000D01*
X182314000Y-81216000D01*
X182351000Y-81187000D01*
X182390000Y-81160000D01*
X182430000Y-81136000D01*
X182471000Y-81113000D01*
X182514000Y-81093000D01*
X182557000Y-81075000D01*
X182602000Y-81059000D01*
X182647000Y-81046000D01*
X182693000Y-81035000D01*
X182739000Y-81026000D01*
X182786000Y-81020000D01*
X182833000Y-81016000D01*
X182880000Y-81015000D01*
X182927000Y-81016000D01*
G37*
X134897000Y-74666000D02*
X134944000Y-74670000D01*
X134991000Y-74676000D01*
X135037000Y-74685000D01*
X135083000Y-74696000D01*
X135128000Y-74709000D01*
X135173000Y-74725000D01*
X135216000Y-74743000D01*
X135259000Y-74763000D01*
X135300000Y-74786000D01*
X135340000Y-74810000D01*
X135379000Y-74837000D01*
X135416000Y-74866000D01*
X135452000Y-74896000D01*
X135486000Y-74929000D01*
X135519000Y-74963000D01*
X135549000Y-74999000D01*
X135578000Y-75036000D01*
X135605000Y-75075000D01*
X135629000Y-75115000D01*
X135652000Y-75156000D01*
X135672000Y-75199000D01*
X135690000Y-75242000D01*
X135706000Y-75287000D01*
X135719000Y-75332000D01*
X135730000Y-75378000D01*
X135739000Y-75424000D01*
X135745000Y-75471000D01*
X135749000Y-75518000D01*
X135750000Y-75565000D01*
X135749000Y-75612000D01*
X135745000Y-75659000D01*
X135739000Y-75706000D01*
X135730000Y-75752000D01*
X135719000Y-75798000D01*
X135706000Y-75843000D01*
X135690000Y-75888000D01*
X135672000Y-75931000D01*
X135652000Y-75974000D01*
X135629000Y-76015000D01*
X135605000Y-76055000D01*
X135578000Y-76094000D01*
X135549000Y-76131000D01*
X135519000Y-76167000D01*
X135486000Y-76201000D01*
X135452000Y-76234000D01*
X135416000Y-76264000D01*
X135379000Y-76293000D01*
X135340000Y-76320000D01*
X135300000Y-76344000D01*
X135259000Y-76367000D01*
X135216000Y-76387000D01*
X135173000Y-76405000D01*
X135128000Y-76421000D01*
X135083000Y-76434000D01*
X135037000Y-76445000D01*
X134991000Y-76454000D01*
X134944000Y-76460000D01*
X134897000Y-76464000D01*
X134850000Y-76465000D01*
X132350000Y-76465000D01*
X132350000Y-74665000D01*
X134850000Y-74665000D01*
X134897000Y-74666000D01*
G36*
X134897000Y-74666000D02*
G01*
X134944000Y-74670000D01*
X134991000Y-74676000D01*
X135037000Y-74685000D01*
X135083000Y-74696000D01*
X135128000Y-74709000D01*
X135173000Y-74725000D01*
X135216000Y-74743000D01*
X135259000Y-74763000D01*
X135300000Y-74786000D01*
X135340000Y-74810000D01*
X135379000Y-74837000D01*
X135416000Y-74866000D01*
X135452000Y-74896000D01*
X135486000Y-74929000D01*
X135519000Y-74963000D01*
X135549000Y-74999000D01*
X135578000Y-75036000D01*
X135605000Y-75075000D01*
X135629000Y-75115000D01*
X135652000Y-75156000D01*
X135672000Y-75199000D01*
X135690000Y-75242000D01*
X135706000Y-75287000D01*
X135719000Y-75332000D01*
X135730000Y-75378000D01*
X135739000Y-75424000D01*
X135745000Y-75471000D01*
X135749000Y-75518000D01*
X135750000Y-75565000D01*
X135749000Y-75612000D01*
X135745000Y-75659000D01*
X135739000Y-75706000D01*
X135730000Y-75752000D01*
X135719000Y-75798000D01*
X135706000Y-75843000D01*
X135690000Y-75888000D01*
X135672000Y-75931000D01*
X135652000Y-75974000D01*
X135629000Y-76015000D01*
X135605000Y-76055000D01*
X135578000Y-76094000D01*
X135549000Y-76131000D01*
X135519000Y-76167000D01*
X135486000Y-76201000D01*
X135452000Y-76234000D01*
X135416000Y-76264000D01*
X135379000Y-76293000D01*
X135340000Y-76320000D01*
X135300000Y-76344000D01*
X135259000Y-76367000D01*
X135216000Y-76387000D01*
X135173000Y-76405000D01*
X135128000Y-76421000D01*
X135083000Y-76434000D01*
X135037000Y-76445000D01*
X134991000Y-76454000D01*
X134944000Y-76460000D01*
X134897000Y-76464000D01*
X134850000Y-76465000D01*
X132350000Y-76465000D01*
X132350000Y-74665000D01*
X134850000Y-74665000D01*
X134897000Y-74666000D01*
G37*
X134897000Y-69586000D02*
X134944000Y-69590000D01*
X134991000Y-69596000D01*
X135037000Y-69605000D01*
X135083000Y-69616000D01*
X135128000Y-69629000D01*
X135173000Y-69645000D01*
X135216000Y-69663000D01*
X135259000Y-69683000D01*
X135300000Y-69706000D01*
X135340000Y-69730000D01*
X135379000Y-69757000D01*
X135416000Y-69786000D01*
X135452000Y-69816000D01*
X135486000Y-69849000D01*
X135519000Y-69883000D01*
X135549000Y-69919000D01*
X135578000Y-69956000D01*
X135605000Y-69995000D01*
X135629000Y-70035000D01*
X135652000Y-70076000D01*
X135672000Y-70119000D01*
X135690000Y-70162000D01*
X135706000Y-70207000D01*
X135719000Y-70252000D01*
X135730000Y-70298000D01*
X135739000Y-70344000D01*
X135745000Y-70391000D01*
X135749000Y-70438000D01*
X135750000Y-70485000D01*
X135749000Y-70532000D01*
X135745000Y-70579000D01*
X135739000Y-70626000D01*
X135730000Y-70672000D01*
X135719000Y-70718000D01*
X135706000Y-70763000D01*
X135690000Y-70808000D01*
X135672000Y-70851000D01*
X135652000Y-70894000D01*
X135629000Y-70935000D01*
X135605000Y-70975000D01*
X135578000Y-71014000D01*
X135549000Y-71051000D01*
X135519000Y-71087000D01*
X135486000Y-71121000D01*
X135452000Y-71154000D01*
X135416000Y-71184000D01*
X135379000Y-71213000D01*
X135340000Y-71240000D01*
X135300000Y-71264000D01*
X135259000Y-71287000D01*
X135216000Y-71307000D01*
X135173000Y-71325000D01*
X135128000Y-71341000D01*
X135083000Y-71354000D01*
X135037000Y-71365000D01*
X134991000Y-71374000D01*
X134944000Y-71380000D01*
X134897000Y-71384000D01*
X134850000Y-71385000D01*
X132350000Y-71385000D01*
X132350000Y-69585000D01*
X134850000Y-69585000D01*
X134897000Y-69586000D01*
G36*
X134897000Y-69586000D02*
G01*
X134944000Y-69590000D01*
X134991000Y-69596000D01*
X135037000Y-69605000D01*
X135083000Y-69616000D01*
X135128000Y-69629000D01*
X135173000Y-69645000D01*
X135216000Y-69663000D01*
X135259000Y-69683000D01*
X135300000Y-69706000D01*
X135340000Y-69730000D01*
X135379000Y-69757000D01*
X135416000Y-69786000D01*
X135452000Y-69816000D01*
X135486000Y-69849000D01*
X135519000Y-69883000D01*
X135549000Y-69919000D01*
X135578000Y-69956000D01*
X135605000Y-69995000D01*
X135629000Y-70035000D01*
X135652000Y-70076000D01*
X135672000Y-70119000D01*
X135690000Y-70162000D01*
X135706000Y-70207000D01*
X135719000Y-70252000D01*
X135730000Y-70298000D01*
X135739000Y-70344000D01*
X135745000Y-70391000D01*
X135749000Y-70438000D01*
X135750000Y-70485000D01*
X135749000Y-70532000D01*
X135745000Y-70579000D01*
X135739000Y-70626000D01*
X135730000Y-70672000D01*
X135719000Y-70718000D01*
X135706000Y-70763000D01*
X135690000Y-70808000D01*
X135672000Y-70851000D01*
X135652000Y-70894000D01*
X135629000Y-70935000D01*
X135605000Y-70975000D01*
X135578000Y-71014000D01*
X135549000Y-71051000D01*
X135519000Y-71087000D01*
X135486000Y-71121000D01*
X135452000Y-71154000D01*
X135416000Y-71184000D01*
X135379000Y-71213000D01*
X135340000Y-71240000D01*
X135300000Y-71264000D01*
X135259000Y-71287000D01*
X135216000Y-71307000D01*
X135173000Y-71325000D01*
X135128000Y-71341000D01*
X135083000Y-71354000D01*
X135037000Y-71365000D01*
X134991000Y-71374000D01*
X134944000Y-71380000D01*
X134897000Y-71384000D01*
X134850000Y-71385000D01*
X132350000Y-71385000D01*
X132350000Y-69585000D01*
X134850000Y-69585000D01*
X134897000Y-69586000D01*
G37*
X135520000Y-64135000D02*
X135519000Y-64182000D01*
X135515000Y-64229000D01*
X135509000Y-64276000D01*
X135500000Y-64322000D01*
X135489000Y-64368000D01*
X135476000Y-64413000D01*
X135460000Y-64458000D01*
X135442000Y-64501000D01*
X135422000Y-64544000D01*
X135399000Y-64585000D01*
X135375000Y-64625000D01*
X135348000Y-64664000D01*
X135319000Y-64701000D01*
X135289000Y-64737000D01*
X135256000Y-64771000D01*
X135222000Y-64804000D01*
X135186000Y-64834000D01*
X135149000Y-64863000D01*
X135110000Y-64890000D01*
X135070000Y-64914000D01*
X135029000Y-64937000D01*
X134986000Y-64957000D01*
X134943000Y-64975000D01*
X134898000Y-64991000D01*
X134853000Y-65004000D01*
X134807000Y-65015000D01*
X134761000Y-65024000D01*
X134714000Y-65030000D01*
X134667000Y-65034000D01*
X134620000Y-65035000D01*
X134573000Y-65034000D01*
X134526000Y-65030000D01*
X134479000Y-65024000D01*
X134433000Y-65015000D01*
X134387000Y-65004000D01*
X134342000Y-64991000D01*
X134297000Y-64975000D01*
X134254000Y-64957000D01*
X134211000Y-64937000D01*
X134170000Y-64914000D01*
X134130000Y-64890000D01*
X134091000Y-64863000D01*
X134054000Y-64834000D01*
X134018000Y-64804000D01*
X133984000Y-64771000D01*
X133951000Y-64737000D01*
X133921000Y-64701000D01*
X133892000Y-64664000D01*
X133865000Y-64625000D01*
X133841000Y-64585000D01*
X133818000Y-64544000D01*
X133798000Y-64501000D01*
X133780000Y-64458000D01*
X133764000Y-64413000D01*
X133751000Y-64368000D01*
X133740000Y-64322000D01*
X133731000Y-64276000D01*
X133725000Y-64229000D01*
X133721000Y-64182000D01*
X133720000Y-64135000D01*
X133720000Y-61635000D01*
X135520000Y-61635000D01*
X135520000Y-64135000D01*
G36*
X135520000Y-64135000D02*
G01*
X135519000Y-64182000D01*
X135515000Y-64229000D01*
X135509000Y-64276000D01*
X135500000Y-64322000D01*
X135489000Y-64368000D01*
X135476000Y-64413000D01*
X135460000Y-64458000D01*
X135442000Y-64501000D01*
X135422000Y-64544000D01*
X135399000Y-64585000D01*
X135375000Y-64625000D01*
X135348000Y-64664000D01*
X135319000Y-64701000D01*
X135289000Y-64737000D01*
X135256000Y-64771000D01*
X135222000Y-64804000D01*
X135186000Y-64834000D01*
X135149000Y-64863000D01*
X135110000Y-64890000D01*
X135070000Y-64914000D01*
X135029000Y-64937000D01*
X134986000Y-64957000D01*
X134943000Y-64975000D01*
X134898000Y-64991000D01*
X134853000Y-65004000D01*
X134807000Y-65015000D01*
X134761000Y-65024000D01*
X134714000Y-65030000D01*
X134667000Y-65034000D01*
X134620000Y-65035000D01*
X134573000Y-65034000D01*
X134526000Y-65030000D01*
X134479000Y-65024000D01*
X134433000Y-65015000D01*
X134387000Y-65004000D01*
X134342000Y-64991000D01*
X134297000Y-64975000D01*
X134254000Y-64957000D01*
X134211000Y-64937000D01*
X134170000Y-64914000D01*
X134130000Y-64890000D01*
X134091000Y-64863000D01*
X134054000Y-64834000D01*
X134018000Y-64804000D01*
X133984000Y-64771000D01*
X133951000Y-64737000D01*
X133921000Y-64701000D01*
X133892000Y-64664000D01*
X133865000Y-64625000D01*
X133841000Y-64585000D01*
X133818000Y-64544000D01*
X133798000Y-64501000D01*
X133780000Y-64458000D01*
X133764000Y-64413000D01*
X133751000Y-64368000D01*
X133740000Y-64322000D01*
X133731000Y-64276000D01*
X133725000Y-64229000D01*
X133721000Y-64182000D01*
X133720000Y-64135000D01*
X133720000Y-61635000D01*
X135520000Y-61635000D01*
X135520000Y-64135000D01*
G37*
X138060000Y-64135000D02*
X138059000Y-64182000D01*
X138055000Y-64229000D01*
X138049000Y-64276000D01*
X138040000Y-64322000D01*
X138029000Y-64368000D01*
X138016000Y-64413000D01*
X138000000Y-64458000D01*
X137982000Y-64501000D01*
X137962000Y-64544000D01*
X137939000Y-64585000D01*
X137915000Y-64625000D01*
X137888000Y-64664000D01*
X137859000Y-64701000D01*
X137829000Y-64737000D01*
X137796000Y-64771000D01*
X137762000Y-64804000D01*
X137726000Y-64834000D01*
X137689000Y-64863000D01*
X137650000Y-64890000D01*
X137610000Y-64914000D01*
X137569000Y-64937000D01*
X137526000Y-64957000D01*
X137483000Y-64975000D01*
X137438000Y-64991000D01*
X137393000Y-65004000D01*
X137347000Y-65015000D01*
X137301000Y-65024000D01*
X137254000Y-65030000D01*
X137207000Y-65034000D01*
X137160000Y-65035000D01*
X137113000Y-65034000D01*
X137066000Y-65030000D01*
X137019000Y-65024000D01*
X136973000Y-65015000D01*
X136927000Y-65004000D01*
X136882000Y-64991000D01*
X136837000Y-64975000D01*
X136794000Y-64957000D01*
X136751000Y-64937000D01*
X136710000Y-64914000D01*
X136670000Y-64890000D01*
X136631000Y-64863000D01*
X136594000Y-64834000D01*
X136558000Y-64804000D01*
X136524000Y-64771000D01*
X136491000Y-64737000D01*
X136461000Y-64701000D01*
X136432000Y-64664000D01*
X136405000Y-64625000D01*
X136381000Y-64585000D01*
X136358000Y-64544000D01*
X136338000Y-64501000D01*
X136320000Y-64458000D01*
X136304000Y-64413000D01*
X136291000Y-64368000D01*
X136280000Y-64322000D01*
X136271000Y-64276000D01*
X136265000Y-64229000D01*
X136261000Y-64182000D01*
X136260000Y-64135000D01*
X136260000Y-61635000D01*
X138060000Y-61635000D01*
X138060000Y-64135000D01*
G36*
X138060000Y-64135000D02*
G01*
X138059000Y-64182000D01*
X138055000Y-64229000D01*
X138049000Y-64276000D01*
X138040000Y-64322000D01*
X138029000Y-64368000D01*
X138016000Y-64413000D01*
X138000000Y-64458000D01*
X137982000Y-64501000D01*
X137962000Y-64544000D01*
X137939000Y-64585000D01*
X137915000Y-64625000D01*
X137888000Y-64664000D01*
X137859000Y-64701000D01*
X137829000Y-64737000D01*
X137796000Y-64771000D01*
X137762000Y-64804000D01*
X137726000Y-64834000D01*
X137689000Y-64863000D01*
X137650000Y-64890000D01*
X137610000Y-64914000D01*
X137569000Y-64937000D01*
X137526000Y-64957000D01*
X137483000Y-64975000D01*
X137438000Y-64991000D01*
X137393000Y-65004000D01*
X137347000Y-65015000D01*
X137301000Y-65024000D01*
X137254000Y-65030000D01*
X137207000Y-65034000D01*
X137160000Y-65035000D01*
X137113000Y-65034000D01*
X137066000Y-65030000D01*
X137019000Y-65024000D01*
X136973000Y-65015000D01*
X136927000Y-65004000D01*
X136882000Y-64991000D01*
X136837000Y-64975000D01*
X136794000Y-64957000D01*
X136751000Y-64937000D01*
X136710000Y-64914000D01*
X136670000Y-64890000D01*
X136631000Y-64863000D01*
X136594000Y-64834000D01*
X136558000Y-64804000D01*
X136524000Y-64771000D01*
X136491000Y-64737000D01*
X136461000Y-64701000D01*
X136432000Y-64664000D01*
X136405000Y-64625000D01*
X136381000Y-64585000D01*
X136358000Y-64544000D01*
X136338000Y-64501000D01*
X136320000Y-64458000D01*
X136304000Y-64413000D01*
X136291000Y-64368000D01*
X136280000Y-64322000D01*
X136271000Y-64276000D01*
X136265000Y-64229000D01*
X136261000Y-64182000D01*
X136260000Y-64135000D01*
X136260000Y-61635000D01*
X138060000Y-61635000D01*
X138060000Y-64135000D01*
G37*
X143140000Y-64135000D02*
X143139000Y-64182000D01*
X143135000Y-64229000D01*
X143129000Y-64276000D01*
X143120000Y-64322000D01*
X143109000Y-64368000D01*
X143096000Y-64413000D01*
X143080000Y-64458000D01*
X143062000Y-64501000D01*
X143042000Y-64544000D01*
X143019000Y-64585000D01*
X142995000Y-64625000D01*
X142968000Y-64664000D01*
X142939000Y-64701000D01*
X142909000Y-64737000D01*
X142876000Y-64771000D01*
X142842000Y-64804000D01*
X142806000Y-64834000D01*
X142769000Y-64863000D01*
X142730000Y-64890000D01*
X142690000Y-64914000D01*
X142649000Y-64937000D01*
X142606000Y-64957000D01*
X142563000Y-64975000D01*
X142518000Y-64991000D01*
X142473000Y-65004000D01*
X142427000Y-65015000D01*
X142381000Y-65024000D01*
X142334000Y-65030000D01*
X142287000Y-65034000D01*
X142240000Y-65035000D01*
X142193000Y-65034000D01*
X142146000Y-65030000D01*
X142099000Y-65024000D01*
X142053000Y-65015000D01*
X142007000Y-65004000D01*
X141962000Y-64991000D01*
X141917000Y-64975000D01*
X141874000Y-64957000D01*
X141831000Y-64937000D01*
X141790000Y-64914000D01*
X141750000Y-64890000D01*
X141711000Y-64863000D01*
X141674000Y-64834000D01*
X141638000Y-64804000D01*
X141604000Y-64771000D01*
X141571000Y-64737000D01*
X141541000Y-64701000D01*
X141512000Y-64664000D01*
X141485000Y-64625000D01*
X141461000Y-64585000D01*
X141438000Y-64544000D01*
X141418000Y-64501000D01*
X141400000Y-64458000D01*
X141384000Y-64413000D01*
X141371000Y-64368000D01*
X141360000Y-64322000D01*
X141351000Y-64276000D01*
X141345000Y-64229000D01*
X141341000Y-64182000D01*
X141340000Y-64135000D01*
X141340000Y-61635000D01*
X143140000Y-61635000D01*
X143140000Y-64135000D01*
G36*
X143140000Y-64135000D02*
G01*
X143139000Y-64182000D01*
X143135000Y-64229000D01*
X143129000Y-64276000D01*
X143120000Y-64322000D01*
X143109000Y-64368000D01*
X143096000Y-64413000D01*
X143080000Y-64458000D01*
X143062000Y-64501000D01*
X143042000Y-64544000D01*
X143019000Y-64585000D01*
X142995000Y-64625000D01*
X142968000Y-64664000D01*
X142939000Y-64701000D01*
X142909000Y-64737000D01*
X142876000Y-64771000D01*
X142842000Y-64804000D01*
X142806000Y-64834000D01*
X142769000Y-64863000D01*
X142730000Y-64890000D01*
X142690000Y-64914000D01*
X142649000Y-64937000D01*
X142606000Y-64957000D01*
X142563000Y-64975000D01*
X142518000Y-64991000D01*
X142473000Y-65004000D01*
X142427000Y-65015000D01*
X142381000Y-65024000D01*
X142334000Y-65030000D01*
X142287000Y-65034000D01*
X142240000Y-65035000D01*
X142193000Y-65034000D01*
X142146000Y-65030000D01*
X142099000Y-65024000D01*
X142053000Y-65015000D01*
X142007000Y-65004000D01*
X141962000Y-64991000D01*
X141917000Y-64975000D01*
X141874000Y-64957000D01*
X141831000Y-64937000D01*
X141790000Y-64914000D01*
X141750000Y-64890000D01*
X141711000Y-64863000D01*
X141674000Y-64834000D01*
X141638000Y-64804000D01*
X141604000Y-64771000D01*
X141571000Y-64737000D01*
X141541000Y-64701000D01*
X141512000Y-64664000D01*
X141485000Y-64625000D01*
X141461000Y-64585000D01*
X141438000Y-64544000D01*
X141418000Y-64501000D01*
X141400000Y-64458000D01*
X141384000Y-64413000D01*
X141371000Y-64368000D01*
X141360000Y-64322000D01*
X141351000Y-64276000D01*
X141345000Y-64229000D01*
X141341000Y-64182000D01*
X141340000Y-64135000D01*
X141340000Y-61635000D01*
X143140000Y-61635000D01*
X143140000Y-64135000D01*
G37*
X145680000Y-64135000D02*
X145679000Y-64182000D01*
X145675000Y-64229000D01*
X145669000Y-64276000D01*
X145660000Y-64322000D01*
X145649000Y-64368000D01*
X145636000Y-64413000D01*
X145620000Y-64458000D01*
X145602000Y-64501000D01*
X145582000Y-64544000D01*
X145559000Y-64585000D01*
X145535000Y-64625000D01*
X145508000Y-64664000D01*
X145479000Y-64701000D01*
X145449000Y-64737000D01*
X145416000Y-64771000D01*
X145382000Y-64804000D01*
X145346000Y-64834000D01*
X145309000Y-64863000D01*
X145270000Y-64890000D01*
X145230000Y-64914000D01*
X145189000Y-64937000D01*
X145146000Y-64957000D01*
X145103000Y-64975000D01*
X145058000Y-64991000D01*
X145013000Y-65004000D01*
X144967000Y-65015000D01*
X144921000Y-65024000D01*
X144874000Y-65030000D01*
X144827000Y-65034000D01*
X144780000Y-65035000D01*
X144733000Y-65034000D01*
X144686000Y-65030000D01*
X144639000Y-65024000D01*
X144593000Y-65015000D01*
X144547000Y-65004000D01*
X144502000Y-64991000D01*
X144457000Y-64975000D01*
X144414000Y-64957000D01*
X144371000Y-64937000D01*
X144330000Y-64914000D01*
X144290000Y-64890000D01*
X144251000Y-64863000D01*
X144214000Y-64834000D01*
X144178000Y-64804000D01*
X144144000Y-64771000D01*
X144111000Y-64737000D01*
X144081000Y-64701000D01*
X144052000Y-64664000D01*
X144025000Y-64625000D01*
X144001000Y-64585000D01*
X143978000Y-64544000D01*
X143958000Y-64501000D01*
X143940000Y-64458000D01*
X143924000Y-64413000D01*
X143911000Y-64368000D01*
X143900000Y-64322000D01*
X143891000Y-64276000D01*
X143885000Y-64229000D01*
X143881000Y-64182000D01*
X143880000Y-64135000D01*
X143880000Y-61635000D01*
X145680000Y-61635000D01*
X145680000Y-64135000D01*
G36*
X145680000Y-64135000D02*
G01*
X145679000Y-64182000D01*
X145675000Y-64229000D01*
X145669000Y-64276000D01*
X145660000Y-64322000D01*
X145649000Y-64368000D01*
X145636000Y-64413000D01*
X145620000Y-64458000D01*
X145602000Y-64501000D01*
X145582000Y-64544000D01*
X145559000Y-64585000D01*
X145535000Y-64625000D01*
X145508000Y-64664000D01*
X145479000Y-64701000D01*
X145449000Y-64737000D01*
X145416000Y-64771000D01*
X145382000Y-64804000D01*
X145346000Y-64834000D01*
X145309000Y-64863000D01*
X145270000Y-64890000D01*
X145230000Y-64914000D01*
X145189000Y-64937000D01*
X145146000Y-64957000D01*
X145103000Y-64975000D01*
X145058000Y-64991000D01*
X145013000Y-65004000D01*
X144967000Y-65015000D01*
X144921000Y-65024000D01*
X144874000Y-65030000D01*
X144827000Y-65034000D01*
X144780000Y-65035000D01*
X144733000Y-65034000D01*
X144686000Y-65030000D01*
X144639000Y-65024000D01*
X144593000Y-65015000D01*
X144547000Y-65004000D01*
X144502000Y-64991000D01*
X144457000Y-64975000D01*
X144414000Y-64957000D01*
X144371000Y-64937000D01*
X144330000Y-64914000D01*
X144290000Y-64890000D01*
X144251000Y-64863000D01*
X144214000Y-64834000D01*
X144178000Y-64804000D01*
X144144000Y-64771000D01*
X144111000Y-64737000D01*
X144081000Y-64701000D01*
X144052000Y-64664000D01*
X144025000Y-64625000D01*
X144001000Y-64585000D01*
X143978000Y-64544000D01*
X143958000Y-64501000D01*
X143940000Y-64458000D01*
X143924000Y-64413000D01*
X143911000Y-64368000D01*
X143900000Y-64322000D01*
X143891000Y-64276000D01*
X143885000Y-64229000D01*
X143881000Y-64182000D01*
X143880000Y-64135000D01*
X143880000Y-61635000D01*
X145680000Y-61635000D01*
X145680000Y-64135000D01*
G37*
X148220000Y-64135000D02*
X148219000Y-64182000D01*
X148215000Y-64229000D01*
X148209000Y-64276000D01*
X148200000Y-64322000D01*
X148189000Y-64368000D01*
X148176000Y-64413000D01*
X148160000Y-64458000D01*
X148142000Y-64501000D01*
X148122000Y-64544000D01*
X148099000Y-64585000D01*
X148075000Y-64625000D01*
X148048000Y-64664000D01*
X148019000Y-64701000D01*
X147989000Y-64737000D01*
X147956000Y-64771000D01*
X147922000Y-64804000D01*
X147886000Y-64834000D01*
X147849000Y-64863000D01*
X147810000Y-64890000D01*
X147770000Y-64914000D01*
X147729000Y-64937000D01*
X147686000Y-64957000D01*
X147643000Y-64975000D01*
X147598000Y-64991000D01*
X147553000Y-65004000D01*
X147507000Y-65015000D01*
X147461000Y-65024000D01*
X147414000Y-65030000D01*
X147367000Y-65034000D01*
X147320000Y-65035000D01*
X147273000Y-65034000D01*
X147226000Y-65030000D01*
X147179000Y-65024000D01*
X147133000Y-65015000D01*
X147087000Y-65004000D01*
X147042000Y-64991000D01*
X146997000Y-64975000D01*
X146954000Y-64957000D01*
X146911000Y-64937000D01*
X146870000Y-64914000D01*
X146830000Y-64890000D01*
X146791000Y-64863000D01*
X146754000Y-64834000D01*
X146718000Y-64804000D01*
X146684000Y-64771000D01*
X146651000Y-64737000D01*
X146621000Y-64701000D01*
X146592000Y-64664000D01*
X146565000Y-64625000D01*
X146541000Y-64585000D01*
X146518000Y-64544000D01*
X146498000Y-64501000D01*
X146480000Y-64458000D01*
X146464000Y-64413000D01*
X146451000Y-64368000D01*
X146440000Y-64322000D01*
X146431000Y-64276000D01*
X146425000Y-64229000D01*
X146421000Y-64182000D01*
X146420000Y-64135000D01*
X146420000Y-61635000D01*
X148220000Y-61635000D01*
X148220000Y-64135000D01*
G36*
X148220000Y-64135000D02*
G01*
X148219000Y-64182000D01*
X148215000Y-64229000D01*
X148209000Y-64276000D01*
X148200000Y-64322000D01*
X148189000Y-64368000D01*
X148176000Y-64413000D01*
X148160000Y-64458000D01*
X148142000Y-64501000D01*
X148122000Y-64544000D01*
X148099000Y-64585000D01*
X148075000Y-64625000D01*
X148048000Y-64664000D01*
X148019000Y-64701000D01*
X147989000Y-64737000D01*
X147956000Y-64771000D01*
X147922000Y-64804000D01*
X147886000Y-64834000D01*
X147849000Y-64863000D01*
X147810000Y-64890000D01*
X147770000Y-64914000D01*
X147729000Y-64937000D01*
X147686000Y-64957000D01*
X147643000Y-64975000D01*
X147598000Y-64991000D01*
X147553000Y-65004000D01*
X147507000Y-65015000D01*
X147461000Y-65024000D01*
X147414000Y-65030000D01*
X147367000Y-65034000D01*
X147320000Y-65035000D01*
X147273000Y-65034000D01*
X147226000Y-65030000D01*
X147179000Y-65024000D01*
X147133000Y-65015000D01*
X147087000Y-65004000D01*
X147042000Y-64991000D01*
X146997000Y-64975000D01*
X146954000Y-64957000D01*
X146911000Y-64937000D01*
X146870000Y-64914000D01*
X146830000Y-64890000D01*
X146791000Y-64863000D01*
X146754000Y-64834000D01*
X146718000Y-64804000D01*
X146684000Y-64771000D01*
X146651000Y-64737000D01*
X146621000Y-64701000D01*
X146592000Y-64664000D01*
X146565000Y-64625000D01*
X146541000Y-64585000D01*
X146518000Y-64544000D01*
X146498000Y-64501000D01*
X146480000Y-64458000D01*
X146464000Y-64413000D01*
X146451000Y-64368000D01*
X146440000Y-64322000D01*
X146431000Y-64276000D01*
X146425000Y-64229000D01*
X146421000Y-64182000D01*
X146420000Y-64135000D01*
X146420000Y-61635000D01*
X148220000Y-61635000D01*
X148220000Y-64135000D01*
G37*
X150760000Y-64135000D02*
X150759000Y-64182000D01*
X150755000Y-64229000D01*
X150749000Y-64276000D01*
X150740000Y-64322000D01*
X150729000Y-64368000D01*
X150716000Y-64413000D01*
X150700000Y-64458000D01*
X150682000Y-64501000D01*
X150662000Y-64544000D01*
X150639000Y-64585000D01*
X150615000Y-64625000D01*
X150588000Y-64664000D01*
X150559000Y-64701000D01*
X150529000Y-64737000D01*
X150496000Y-64771000D01*
X150462000Y-64804000D01*
X150426000Y-64834000D01*
X150389000Y-64863000D01*
X150350000Y-64890000D01*
X150310000Y-64914000D01*
X150269000Y-64937000D01*
X150226000Y-64957000D01*
X150183000Y-64975000D01*
X150138000Y-64991000D01*
X150093000Y-65004000D01*
X150047000Y-65015000D01*
X150001000Y-65024000D01*
X149954000Y-65030000D01*
X149907000Y-65034000D01*
X149860000Y-65035000D01*
X149813000Y-65034000D01*
X149766000Y-65030000D01*
X149719000Y-65024000D01*
X149673000Y-65015000D01*
X149627000Y-65004000D01*
X149582000Y-64991000D01*
X149537000Y-64975000D01*
X149494000Y-64957000D01*
X149451000Y-64937000D01*
X149410000Y-64914000D01*
X149370000Y-64890000D01*
X149331000Y-64863000D01*
X149294000Y-64834000D01*
X149258000Y-64804000D01*
X149224000Y-64771000D01*
X149191000Y-64737000D01*
X149161000Y-64701000D01*
X149132000Y-64664000D01*
X149105000Y-64625000D01*
X149081000Y-64585000D01*
X149058000Y-64544000D01*
X149038000Y-64501000D01*
X149020000Y-64458000D01*
X149004000Y-64413000D01*
X148991000Y-64368000D01*
X148980000Y-64322000D01*
X148971000Y-64276000D01*
X148965000Y-64229000D01*
X148961000Y-64182000D01*
X148960000Y-64135000D01*
X148960000Y-61635000D01*
X150760000Y-61635000D01*
X150760000Y-64135000D01*
G36*
X150760000Y-64135000D02*
G01*
X150759000Y-64182000D01*
X150755000Y-64229000D01*
X150749000Y-64276000D01*
X150740000Y-64322000D01*
X150729000Y-64368000D01*
X150716000Y-64413000D01*
X150700000Y-64458000D01*
X150682000Y-64501000D01*
X150662000Y-64544000D01*
X150639000Y-64585000D01*
X150615000Y-64625000D01*
X150588000Y-64664000D01*
X150559000Y-64701000D01*
X150529000Y-64737000D01*
X150496000Y-64771000D01*
X150462000Y-64804000D01*
X150426000Y-64834000D01*
X150389000Y-64863000D01*
X150350000Y-64890000D01*
X150310000Y-64914000D01*
X150269000Y-64937000D01*
X150226000Y-64957000D01*
X150183000Y-64975000D01*
X150138000Y-64991000D01*
X150093000Y-65004000D01*
X150047000Y-65015000D01*
X150001000Y-65024000D01*
X149954000Y-65030000D01*
X149907000Y-65034000D01*
X149860000Y-65035000D01*
X149813000Y-65034000D01*
X149766000Y-65030000D01*
X149719000Y-65024000D01*
X149673000Y-65015000D01*
X149627000Y-65004000D01*
X149582000Y-64991000D01*
X149537000Y-64975000D01*
X149494000Y-64957000D01*
X149451000Y-64937000D01*
X149410000Y-64914000D01*
X149370000Y-64890000D01*
X149331000Y-64863000D01*
X149294000Y-64834000D01*
X149258000Y-64804000D01*
X149224000Y-64771000D01*
X149191000Y-64737000D01*
X149161000Y-64701000D01*
X149132000Y-64664000D01*
X149105000Y-64625000D01*
X149081000Y-64585000D01*
X149058000Y-64544000D01*
X149038000Y-64501000D01*
X149020000Y-64458000D01*
X149004000Y-64413000D01*
X148991000Y-64368000D01*
X148980000Y-64322000D01*
X148971000Y-64276000D01*
X148965000Y-64229000D01*
X148961000Y-64182000D01*
X148960000Y-64135000D01*
X148960000Y-61635000D01*
X150760000Y-61635000D01*
X150760000Y-64135000D01*
G37*
X155840000Y-64135000D02*
X155839000Y-64182000D01*
X155835000Y-64229000D01*
X155829000Y-64276000D01*
X155820000Y-64322000D01*
X155809000Y-64368000D01*
X155796000Y-64413000D01*
X155780000Y-64458000D01*
X155762000Y-64501000D01*
X155742000Y-64544000D01*
X155719000Y-64585000D01*
X155695000Y-64625000D01*
X155668000Y-64664000D01*
X155639000Y-64701000D01*
X155609000Y-64737000D01*
X155576000Y-64771000D01*
X155542000Y-64804000D01*
X155506000Y-64834000D01*
X155469000Y-64863000D01*
X155430000Y-64890000D01*
X155390000Y-64914000D01*
X155349000Y-64937000D01*
X155306000Y-64957000D01*
X155263000Y-64975000D01*
X155218000Y-64991000D01*
X155173000Y-65004000D01*
X155127000Y-65015000D01*
X155081000Y-65024000D01*
X155034000Y-65030000D01*
X154987000Y-65034000D01*
X154940000Y-65035000D01*
X154893000Y-65034000D01*
X154846000Y-65030000D01*
X154799000Y-65024000D01*
X154753000Y-65015000D01*
X154707000Y-65004000D01*
X154662000Y-64991000D01*
X154617000Y-64975000D01*
X154574000Y-64957000D01*
X154531000Y-64937000D01*
X154490000Y-64914000D01*
X154450000Y-64890000D01*
X154411000Y-64863000D01*
X154374000Y-64834000D01*
X154338000Y-64804000D01*
X154304000Y-64771000D01*
X154271000Y-64737000D01*
X154241000Y-64701000D01*
X154212000Y-64664000D01*
X154185000Y-64625000D01*
X154161000Y-64585000D01*
X154138000Y-64544000D01*
X154118000Y-64501000D01*
X154100000Y-64458000D01*
X154084000Y-64413000D01*
X154071000Y-64368000D01*
X154060000Y-64322000D01*
X154051000Y-64276000D01*
X154045000Y-64229000D01*
X154041000Y-64182000D01*
X154040000Y-64135000D01*
X154040000Y-61635000D01*
X155840000Y-61635000D01*
X155840000Y-64135000D01*
G36*
X155840000Y-64135000D02*
G01*
X155839000Y-64182000D01*
X155835000Y-64229000D01*
X155829000Y-64276000D01*
X155820000Y-64322000D01*
X155809000Y-64368000D01*
X155796000Y-64413000D01*
X155780000Y-64458000D01*
X155762000Y-64501000D01*
X155742000Y-64544000D01*
X155719000Y-64585000D01*
X155695000Y-64625000D01*
X155668000Y-64664000D01*
X155639000Y-64701000D01*
X155609000Y-64737000D01*
X155576000Y-64771000D01*
X155542000Y-64804000D01*
X155506000Y-64834000D01*
X155469000Y-64863000D01*
X155430000Y-64890000D01*
X155390000Y-64914000D01*
X155349000Y-64937000D01*
X155306000Y-64957000D01*
X155263000Y-64975000D01*
X155218000Y-64991000D01*
X155173000Y-65004000D01*
X155127000Y-65015000D01*
X155081000Y-65024000D01*
X155034000Y-65030000D01*
X154987000Y-65034000D01*
X154940000Y-65035000D01*
X154893000Y-65034000D01*
X154846000Y-65030000D01*
X154799000Y-65024000D01*
X154753000Y-65015000D01*
X154707000Y-65004000D01*
X154662000Y-64991000D01*
X154617000Y-64975000D01*
X154574000Y-64957000D01*
X154531000Y-64937000D01*
X154490000Y-64914000D01*
X154450000Y-64890000D01*
X154411000Y-64863000D01*
X154374000Y-64834000D01*
X154338000Y-64804000D01*
X154304000Y-64771000D01*
X154271000Y-64737000D01*
X154241000Y-64701000D01*
X154212000Y-64664000D01*
X154185000Y-64625000D01*
X154161000Y-64585000D01*
X154138000Y-64544000D01*
X154118000Y-64501000D01*
X154100000Y-64458000D01*
X154084000Y-64413000D01*
X154071000Y-64368000D01*
X154060000Y-64322000D01*
X154051000Y-64276000D01*
X154045000Y-64229000D01*
X154041000Y-64182000D01*
X154040000Y-64135000D01*
X154040000Y-61635000D01*
X155840000Y-61635000D01*
X155840000Y-64135000D01*
G37*
X158380000Y-64135000D02*
X158379000Y-64182000D01*
X158375000Y-64229000D01*
X158369000Y-64276000D01*
X158360000Y-64322000D01*
X158349000Y-64368000D01*
X158336000Y-64413000D01*
X158320000Y-64458000D01*
X158302000Y-64501000D01*
X158282000Y-64544000D01*
X158259000Y-64585000D01*
X158235000Y-64625000D01*
X158208000Y-64664000D01*
X158179000Y-64701000D01*
X158149000Y-64737000D01*
X158116000Y-64771000D01*
X158082000Y-64804000D01*
X158046000Y-64834000D01*
X158009000Y-64863000D01*
X157970000Y-64890000D01*
X157930000Y-64914000D01*
X157889000Y-64937000D01*
X157846000Y-64957000D01*
X157803000Y-64975000D01*
X157758000Y-64991000D01*
X157713000Y-65004000D01*
X157667000Y-65015000D01*
X157621000Y-65024000D01*
X157574000Y-65030000D01*
X157527000Y-65034000D01*
X157480000Y-65035000D01*
X157433000Y-65034000D01*
X157386000Y-65030000D01*
X157339000Y-65024000D01*
X157293000Y-65015000D01*
X157247000Y-65004000D01*
X157202000Y-64991000D01*
X157157000Y-64975000D01*
X157114000Y-64957000D01*
X157071000Y-64937000D01*
X157030000Y-64914000D01*
X156990000Y-64890000D01*
X156951000Y-64863000D01*
X156914000Y-64834000D01*
X156878000Y-64804000D01*
X156844000Y-64771000D01*
X156811000Y-64737000D01*
X156781000Y-64701000D01*
X156752000Y-64664000D01*
X156725000Y-64625000D01*
X156701000Y-64585000D01*
X156678000Y-64544000D01*
X156658000Y-64501000D01*
X156640000Y-64458000D01*
X156624000Y-64413000D01*
X156611000Y-64368000D01*
X156600000Y-64322000D01*
X156591000Y-64276000D01*
X156585000Y-64229000D01*
X156581000Y-64182000D01*
X156580000Y-64135000D01*
X156580000Y-61635000D01*
X158380000Y-61635000D01*
X158380000Y-64135000D01*
G36*
X158380000Y-64135000D02*
G01*
X158379000Y-64182000D01*
X158375000Y-64229000D01*
X158369000Y-64276000D01*
X158360000Y-64322000D01*
X158349000Y-64368000D01*
X158336000Y-64413000D01*
X158320000Y-64458000D01*
X158302000Y-64501000D01*
X158282000Y-64544000D01*
X158259000Y-64585000D01*
X158235000Y-64625000D01*
X158208000Y-64664000D01*
X158179000Y-64701000D01*
X158149000Y-64737000D01*
X158116000Y-64771000D01*
X158082000Y-64804000D01*
X158046000Y-64834000D01*
X158009000Y-64863000D01*
X157970000Y-64890000D01*
X157930000Y-64914000D01*
X157889000Y-64937000D01*
X157846000Y-64957000D01*
X157803000Y-64975000D01*
X157758000Y-64991000D01*
X157713000Y-65004000D01*
X157667000Y-65015000D01*
X157621000Y-65024000D01*
X157574000Y-65030000D01*
X157527000Y-65034000D01*
X157480000Y-65035000D01*
X157433000Y-65034000D01*
X157386000Y-65030000D01*
X157339000Y-65024000D01*
X157293000Y-65015000D01*
X157247000Y-65004000D01*
X157202000Y-64991000D01*
X157157000Y-64975000D01*
X157114000Y-64957000D01*
X157071000Y-64937000D01*
X157030000Y-64914000D01*
X156990000Y-64890000D01*
X156951000Y-64863000D01*
X156914000Y-64834000D01*
X156878000Y-64804000D01*
X156844000Y-64771000D01*
X156811000Y-64737000D01*
X156781000Y-64701000D01*
X156752000Y-64664000D01*
X156725000Y-64625000D01*
X156701000Y-64585000D01*
X156678000Y-64544000D01*
X156658000Y-64501000D01*
X156640000Y-64458000D01*
X156624000Y-64413000D01*
X156611000Y-64368000D01*
X156600000Y-64322000D01*
X156591000Y-64276000D01*
X156585000Y-64229000D01*
X156581000Y-64182000D01*
X156580000Y-64135000D01*
X156580000Y-61635000D01*
X158380000Y-61635000D01*
X158380000Y-64135000D01*
G37*
X160920000Y-64135000D02*
X160919000Y-64182000D01*
X160915000Y-64229000D01*
X160909000Y-64276000D01*
X160900000Y-64322000D01*
X160889000Y-64368000D01*
X160876000Y-64413000D01*
X160860000Y-64458000D01*
X160842000Y-64501000D01*
X160822000Y-64544000D01*
X160799000Y-64585000D01*
X160775000Y-64625000D01*
X160748000Y-64664000D01*
X160719000Y-64701000D01*
X160689000Y-64737000D01*
X160656000Y-64771000D01*
X160622000Y-64804000D01*
X160586000Y-64834000D01*
X160549000Y-64863000D01*
X160510000Y-64890000D01*
X160470000Y-64914000D01*
X160429000Y-64937000D01*
X160386000Y-64957000D01*
X160343000Y-64975000D01*
X160298000Y-64991000D01*
X160253000Y-65004000D01*
X160207000Y-65015000D01*
X160161000Y-65024000D01*
X160114000Y-65030000D01*
X160067000Y-65034000D01*
X160020000Y-65035000D01*
X159973000Y-65034000D01*
X159926000Y-65030000D01*
X159879000Y-65024000D01*
X159833000Y-65015000D01*
X159787000Y-65004000D01*
X159742000Y-64991000D01*
X159697000Y-64975000D01*
X159654000Y-64957000D01*
X159611000Y-64937000D01*
X159570000Y-64914000D01*
X159530000Y-64890000D01*
X159491000Y-64863000D01*
X159454000Y-64834000D01*
X159418000Y-64804000D01*
X159384000Y-64771000D01*
X159351000Y-64737000D01*
X159321000Y-64701000D01*
X159292000Y-64664000D01*
X159265000Y-64625000D01*
X159241000Y-64585000D01*
X159218000Y-64544000D01*
X159198000Y-64501000D01*
X159180000Y-64458000D01*
X159164000Y-64413000D01*
X159151000Y-64368000D01*
X159140000Y-64322000D01*
X159131000Y-64276000D01*
X159125000Y-64229000D01*
X159121000Y-64182000D01*
X159120000Y-64135000D01*
X159120000Y-61635000D01*
X160920000Y-61635000D01*
X160920000Y-64135000D01*
G36*
X160920000Y-64135000D02*
G01*
X160919000Y-64182000D01*
X160915000Y-64229000D01*
X160909000Y-64276000D01*
X160900000Y-64322000D01*
X160889000Y-64368000D01*
X160876000Y-64413000D01*
X160860000Y-64458000D01*
X160842000Y-64501000D01*
X160822000Y-64544000D01*
X160799000Y-64585000D01*
X160775000Y-64625000D01*
X160748000Y-64664000D01*
X160719000Y-64701000D01*
X160689000Y-64737000D01*
X160656000Y-64771000D01*
X160622000Y-64804000D01*
X160586000Y-64834000D01*
X160549000Y-64863000D01*
X160510000Y-64890000D01*
X160470000Y-64914000D01*
X160429000Y-64937000D01*
X160386000Y-64957000D01*
X160343000Y-64975000D01*
X160298000Y-64991000D01*
X160253000Y-65004000D01*
X160207000Y-65015000D01*
X160161000Y-65024000D01*
X160114000Y-65030000D01*
X160067000Y-65034000D01*
X160020000Y-65035000D01*
X159973000Y-65034000D01*
X159926000Y-65030000D01*
X159879000Y-65024000D01*
X159833000Y-65015000D01*
X159787000Y-65004000D01*
X159742000Y-64991000D01*
X159697000Y-64975000D01*
X159654000Y-64957000D01*
X159611000Y-64937000D01*
X159570000Y-64914000D01*
X159530000Y-64890000D01*
X159491000Y-64863000D01*
X159454000Y-64834000D01*
X159418000Y-64804000D01*
X159384000Y-64771000D01*
X159351000Y-64737000D01*
X159321000Y-64701000D01*
X159292000Y-64664000D01*
X159265000Y-64625000D01*
X159241000Y-64585000D01*
X159218000Y-64544000D01*
X159198000Y-64501000D01*
X159180000Y-64458000D01*
X159164000Y-64413000D01*
X159151000Y-64368000D01*
X159140000Y-64322000D01*
X159131000Y-64276000D01*
X159125000Y-64229000D01*
X159121000Y-64182000D01*
X159120000Y-64135000D01*
X159120000Y-61635000D01*
X160920000Y-61635000D01*
X160920000Y-64135000D01*
G37*
X163460000Y-64135000D02*
X163459000Y-64182000D01*
X163455000Y-64229000D01*
X163449000Y-64276000D01*
X163440000Y-64322000D01*
X163429000Y-64368000D01*
X163416000Y-64413000D01*
X163400000Y-64458000D01*
X163382000Y-64501000D01*
X163362000Y-64544000D01*
X163339000Y-64585000D01*
X163315000Y-64625000D01*
X163288000Y-64664000D01*
X163259000Y-64701000D01*
X163229000Y-64737000D01*
X163196000Y-64771000D01*
X163162000Y-64804000D01*
X163126000Y-64834000D01*
X163089000Y-64863000D01*
X163050000Y-64890000D01*
X163010000Y-64914000D01*
X162969000Y-64937000D01*
X162926000Y-64957000D01*
X162883000Y-64975000D01*
X162838000Y-64991000D01*
X162793000Y-65004000D01*
X162747000Y-65015000D01*
X162701000Y-65024000D01*
X162654000Y-65030000D01*
X162607000Y-65034000D01*
X162560000Y-65035000D01*
X162513000Y-65034000D01*
X162466000Y-65030000D01*
X162419000Y-65024000D01*
X162373000Y-65015000D01*
X162327000Y-65004000D01*
X162282000Y-64991000D01*
X162237000Y-64975000D01*
X162194000Y-64957000D01*
X162151000Y-64937000D01*
X162110000Y-64914000D01*
X162070000Y-64890000D01*
X162031000Y-64863000D01*
X161994000Y-64834000D01*
X161958000Y-64804000D01*
X161924000Y-64771000D01*
X161891000Y-64737000D01*
X161861000Y-64701000D01*
X161832000Y-64664000D01*
X161805000Y-64625000D01*
X161781000Y-64585000D01*
X161758000Y-64544000D01*
X161738000Y-64501000D01*
X161720000Y-64458000D01*
X161704000Y-64413000D01*
X161691000Y-64368000D01*
X161680000Y-64322000D01*
X161671000Y-64276000D01*
X161665000Y-64229000D01*
X161661000Y-64182000D01*
X161660000Y-64135000D01*
X161660000Y-61635000D01*
X163460000Y-61635000D01*
X163460000Y-64135000D01*
G36*
X163460000Y-64135000D02*
G01*
X163459000Y-64182000D01*
X163455000Y-64229000D01*
X163449000Y-64276000D01*
X163440000Y-64322000D01*
X163429000Y-64368000D01*
X163416000Y-64413000D01*
X163400000Y-64458000D01*
X163382000Y-64501000D01*
X163362000Y-64544000D01*
X163339000Y-64585000D01*
X163315000Y-64625000D01*
X163288000Y-64664000D01*
X163259000Y-64701000D01*
X163229000Y-64737000D01*
X163196000Y-64771000D01*
X163162000Y-64804000D01*
X163126000Y-64834000D01*
X163089000Y-64863000D01*
X163050000Y-64890000D01*
X163010000Y-64914000D01*
X162969000Y-64937000D01*
X162926000Y-64957000D01*
X162883000Y-64975000D01*
X162838000Y-64991000D01*
X162793000Y-65004000D01*
X162747000Y-65015000D01*
X162701000Y-65024000D01*
X162654000Y-65030000D01*
X162607000Y-65034000D01*
X162560000Y-65035000D01*
X162513000Y-65034000D01*
X162466000Y-65030000D01*
X162419000Y-65024000D01*
X162373000Y-65015000D01*
X162327000Y-65004000D01*
X162282000Y-64991000D01*
X162237000Y-64975000D01*
X162194000Y-64957000D01*
X162151000Y-64937000D01*
X162110000Y-64914000D01*
X162070000Y-64890000D01*
X162031000Y-64863000D01*
X161994000Y-64834000D01*
X161958000Y-64804000D01*
X161924000Y-64771000D01*
X161891000Y-64737000D01*
X161861000Y-64701000D01*
X161832000Y-64664000D01*
X161805000Y-64625000D01*
X161781000Y-64585000D01*
X161758000Y-64544000D01*
X161738000Y-64501000D01*
X161720000Y-64458000D01*
X161704000Y-64413000D01*
X161691000Y-64368000D01*
X161680000Y-64322000D01*
X161671000Y-64276000D01*
X161665000Y-64229000D01*
X161661000Y-64182000D01*
X161660000Y-64135000D01*
X161660000Y-61635000D01*
X163460000Y-61635000D01*
X163460000Y-64135000D01*
G37*
X168540000Y-64135000D02*
X168539000Y-64182000D01*
X168535000Y-64229000D01*
X168529000Y-64276000D01*
X168520000Y-64322000D01*
X168509000Y-64368000D01*
X168496000Y-64413000D01*
X168480000Y-64458000D01*
X168462000Y-64501000D01*
X168442000Y-64544000D01*
X168419000Y-64585000D01*
X168395000Y-64625000D01*
X168368000Y-64664000D01*
X168339000Y-64701000D01*
X168309000Y-64737000D01*
X168276000Y-64771000D01*
X168242000Y-64804000D01*
X168206000Y-64834000D01*
X168169000Y-64863000D01*
X168130000Y-64890000D01*
X168090000Y-64914000D01*
X168049000Y-64937000D01*
X168006000Y-64957000D01*
X167963000Y-64975000D01*
X167918000Y-64991000D01*
X167873000Y-65004000D01*
X167827000Y-65015000D01*
X167781000Y-65024000D01*
X167734000Y-65030000D01*
X167687000Y-65034000D01*
X167640000Y-65035000D01*
X167593000Y-65034000D01*
X167546000Y-65030000D01*
X167499000Y-65024000D01*
X167453000Y-65015000D01*
X167407000Y-65004000D01*
X167362000Y-64991000D01*
X167317000Y-64975000D01*
X167274000Y-64957000D01*
X167231000Y-64937000D01*
X167190000Y-64914000D01*
X167150000Y-64890000D01*
X167111000Y-64863000D01*
X167074000Y-64834000D01*
X167038000Y-64804000D01*
X167004000Y-64771000D01*
X166971000Y-64737000D01*
X166941000Y-64701000D01*
X166912000Y-64664000D01*
X166885000Y-64625000D01*
X166861000Y-64585000D01*
X166838000Y-64544000D01*
X166818000Y-64501000D01*
X166800000Y-64458000D01*
X166784000Y-64413000D01*
X166771000Y-64368000D01*
X166760000Y-64322000D01*
X166751000Y-64276000D01*
X166745000Y-64229000D01*
X166741000Y-64182000D01*
X166740000Y-64135000D01*
X166740000Y-61635000D01*
X168540000Y-61635000D01*
X168540000Y-64135000D01*
G36*
X168540000Y-64135000D02*
G01*
X168539000Y-64182000D01*
X168535000Y-64229000D01*
X168529000Y-64276000D01*
X168520000Y-64322000D01*
X168509000Y-64368000D01*
X168496000Y-64413000D01*
X168480000Y-64458000D01*
X168462000Y-64501000D01*
X168442000Y-64544000D01*
X168419000Y-64585000D01*
X168395000Y-64625000D01*
X168368000Y-64664000D01*
X168339000Y-64701000D01*
X168309000Y-64737000D01*
X168276000Y-64771000D01*
X168242000Y-64804000D01*
X168206000Y-64834000D01*
X168169000Y-64863000D01*
X168130000Y-64890000D01*
X168090000Y-64914000D01*
X168049000Y-64937000D01*
X168006000Y-64957000D01*
X167963000Y-64975000D01*
X167918000Y-64991000D01*
X167873000Y-65004000D01*
X167827000Y-65015000D01*
X167781000Y-65024000D01*
X167734000Y-65030000D01*
X167687000Y-65034000D01*
X167640000Y-65035000D01*
X167593000Y-65034000D01*
X167546000Y-65030000D01*
X167499000Y-65024000D01*
X167453000Y-65015000D01*
X167407000Y-65004000D01*
X167362000Y-64991000D01*
X167317000Y-64975000D01*
X167274000Y-64957000D01*
X167231000Y-64937000D01*
X167190000Y-64914000D01*
X167150000Y-64890000D01*
X167111000Y-64863000D01*
X167074000Y-64834000D01*
X167038000Y-64804000D01*
X167004000Y-64771000D01*
X166971000Y-64737000D01*
X166941000Y-64701000D01*
X166912000Y-64664000D01*
X166885000Y-64625000D01*
X166861000Y-64585000D01*
X166838000Y-64544000D01*
X166818000Y-64501000D01*
X166800000Y-64458000D01*
X166784000Y-64413000D01*
X166771000Y-64368000D01*
X166760000Y-64322000D01*
X166751000Y-64276000D01*
X166745000Y-64229000D01*
X166741000Y-64182000D01*
X166740000Y-64135000D01*
X166740000Y-61635000D01*
X168540000Y-61635000D01*
X168540000Y-64135000D01*
G37*
X171080000Y-64135000D02*
X171079000Y-64182000D01*
X171075000Y-64229000D01*
X171069000Y-64276000D01*
X171060000Y-64322000D01*
X171049000Y-64368000D01*
X171036000Y-64413000D01*
X171020000Y-64458000D01*
X171002000Y-64501000D01*
X170982000Y-64544000D01*
X170959000Y-64585000D01*
X170935000Y-64625000D01*
X170908000Y-64664000D01*
X170879000Y-64701000D01*
X170849000Y-64737000D01*
X170816000Y-64771000D01*
X170782000Y-64804000D01*
X170746000Y-64834000D01*
X170709000Y-64863000D01*
X170670000Y-64890000D01*
X170630000Y-64914000D01*
X170589000Y-64937000D01*
X170546000Y-64957000D01*
X170503000Y-64975000D01*
X170458000Y-64991000D01*
X170413000Y-65004000D01*
X170367000Y-65015000D01*
X170321000Y-65024000D01*
X170274000Y-65030000D01*
X170227000Y-65034000D01*
X170180000Y-65035000D01*
X170133000Y-65034000D01*
X170086000Y-65030000D01*
X170039000Y-65024000D01*
X169993000Y-65015000D01*
X169947000Y-65004000D01*
X169902000Y-64991000D01*
X169857000Y-64975000D01*
X169814000Y-64957000D01*
X169771000Y-64937000D01*
X169730000Y-64914000D01*
X169690000Y-64890000D01*
X169651000Y-64863000D01*
X169614000Y-64834000D01*
X169578000Y-64804000D01*
X169544000Y-64771000D01*
X169511000Y-64737000D01*
X169481000Y-64701000D01*
X169452000Y-64664000D01*
X169425000Y-64625000D01*
X169401000Y-64585000D01*
X169378000Y-64544000D01*
X169358000Y-64501000D01*
X169340000Y-64458000D01*
X169324000Y-64413000D01*
X169311000Y-64368000D01*
X169300000Y-64322000D01*
X169291000Y-64276000D01*
X169285000Y-64229000D01*
X169281000Y-64182000D01*
X169280000Y-64135000D01*
X169280000Y-61635000D01*
X171080000Y-61635000D01*
X171080000Y-64135000D01*
G36*
X171080000Y-64135000D02*
G01*
X171079000Y-64182000D01*
X171075000Y-64229000D01*
X171069000Y-64276000D01*
X171060000Y-64322000D01*
X171049000Y-64368000D01*
X171036000Y-64413000D01*
X171020000Y-64458000D01*
X171002000Y-64501000D01*
X170982000Y-64544000D01*
X170959000Y-64585000D01*
X170935000Y-64625000D01*
X170908000Y-64664000D01*
X170879000Y-64701000D01*
X170849000Y-64737000D01*
X170816000Y-64771000D01*
X170782000Y-64804000D01*
X170746000Y-64834000D01*
X170709000Y-64863000D01*
X170670000Y-64890000D01*
X170630000Y-64914000D01*
X170589000Y-64937000D01*
X170546000Y-64957000D01*
X170503000Y-64975000D01*
X170458000Y-64991000D01*
X170413000Y-65004000D01*
X170367000Y-65015000D01*
X170321000Y-65024000D01*
X170274000Y-65030000D01*
X170227000Y-65034000D01*
X170180000Y-65035000D01*
X170133000Y-65034000D01*
X170086000Y-65030000D01*
X170039000Y-65024000D01*
X169993000Y-65015000D01*
X169947000Y-65004000D01*
X169902000Y-64991000D01*
X169857000Y-64975000D01*
X169814000Y-64957000D01*
X169771000Y-64937000D01*
X169730000Y-64914000D01*
X169690000Y-64890000D01*
X169651000Y-64863000D01*
X169614000Y-64834000D01*
X169578000Y-64804000D01*
X169544000Y-64771000D01*
X169511000Y-64737000D01*
X169481000Y-64701000D01*
X169452000Y-64664000D01*
X169425000Y-64625000D01*
X169401000Y-64585000D01*
X169378000Y-64544000D01*
X169358000Y-64501000D01*
X169340000Y-64458000D01*
X169324000Y-64413000D01*
X169311000Y-64368000D01*
X169300000Y-64322000D01*
X169291000Y-64276000D01*
X169285000Y-64229000D01*
X169281000Y-64182000D01*
X169280000Y-64135000D01*
X169280000Y-61635000D01*
X171080000Y-61635000D01*
X171080000Y-64135000D01*
G37*
X173620000Y-64135000D02*
X173619000Y-64182000D01*
X173615000Y-64229000D01*
X173609000Y-64276000D01*
X173600000Y-64322000D01*
X173589000Y-64368000D01*
X173576000Y-64413000D01*
X173560000Y-64458000D01*
X173542000Y-64501000D01*
X173522000Y-64544000D01*
X173499000Y-64585000D01*
X173475000Y-64625000D01*
X173448000Y-64664000D01*
X173419000Y-64701000D01*
X173389000Y-64737000D01*
X173356000Y-64771000D01*
X173322000Y-64804000D01*
X173286000Y-64834000D01*
X173249000Y-64863000D01*
X173210000Y-64890000D01*
X173170000Y-64914000D01*
X173129000Y-64937000D01*
X173086000Y-64957000D01*
X173043000Y-64975000D01*
X172998000Y-64991000D01*
X172953000Y-65004000D01*
X172907000Y-65015000D01*
X172861000Y-65024000D01*
X172814000Y-65030000D01*
X172767000Y-65034000D01*
X172720000Y-65035000D01*
X172673000Y-65034000D01*
X172626000Y-65030000D01*
X172579000Y-65024000D01*
X172533000Y-65015000D01*
X172487000Y-65004000D01*
X172442000Y-64991000D01*
X172397000Y-64975000D01*
X172354000Y-64957000D01*
X172311000Y-64937000D01*
X172270000Y-64914000D01*
X172230000Y-64890000D01*
X172191000Y-64863000D01*
X172154000Y-64834000D01*
X172118000Y-64804000D01*
X172084000Y-64771000D01*
X172051000Y-64737000D01*
X172021000Y-64701000D01*
X171992000Y-64664000D01*
X171965000Y-64625000D01*
X171941000Y-64585000D01*
X171918000Y-64544000D01*
X171898000Y-64501000D01*
X171880000Y-64458000D01*
X171864000Y-64413000D01*
X171851000Y-64368000D01*
X171840000Y-64322000D01*
X171831000Y-64276000D01*
X171825000Y-64229000D01*
X171821000Y-64182000D01*
X171820000Y-64135000D01*
X171820000Y-61635000D01*
X173620000Y-61635000D01*
X173620000Y-64135000D01*
G36*
X173620000Y-64135000D02*
G01*
X173619000Y-64182000D01*
X173615000Y-64229000D01*
X173609000Y-64276000D01*
X173600000Y-64322000D01*
X173589000Y-64368000D01*
X173576000Y-64413000D01*
X173560000Y-64458000D01*
X173542000Y-64501000D01*
X173522000Y-64544000D01*
X173499000Y-64585000D01*
X173475000Y-64625000D01*
X173448000Y-64664000D01*
X173419000Y-64701000D01*
X173389000Y-64737000D01*
X173356000Y-64771000D01*
X173322000Y-64804000D01*
X173286000Y-64834000D01*
X173249000Y-64863000D01*
X173210000Y-64890000D01*
X173170000Y-64914000D01*
X173129000Y-64937000D01*
X173086000Y-64957000D01*
X173043000Y-64975000D01*
X172998000Y-64991000D01*
X172953000Y-65004000D01*
X172907000Y-65015000D01*
X172861000Y-65024000D01*
X172814000Y-65030000D01*
X172767000Y-65034000D01*
X172720000Y-65035000D01*
X172673000Y-65034000D01*
X172626000Y-65030000D01*
X172579000Y-65024000D01*
X172533000Y-65015000D01*
X172487000Y-65004000D01*
X172442000Y-64991000D01*
X172397000Y-64975000D01*
X172354000Y-64957000D01*
X172311000Y-64937000D01*
X172270000Y-64914000D01*
X172230000Y-64890000D01*
X172191000Y-64863000D01*
X172154000Y-64834000D01*
X172118000Y-64804000D01*
X172084000Y-64771000D01*
X172051000Y-64737000D01*
X172021000Y-64701000D01*
X171992000Y-64664000D01*
X171965000Y-64625000D01*
X171941000Y-64585000D01*
X171918000Y-64544000D01*
X171898000Y-64501000D01*
X171880000Y-64458000D01*
X171864000Y-64413000D01*
X171851000Y-64368000D01*
X171840000Y-64322000D01*
X171831000Y-64276000D01*
X171825000Y-64229000D01*
X171821000Y-64182000D01*
X171820000Y-64135000D01*
X171820000Y-61635000D01*
X173620000Y-61635000D01*
X173620000Y-64135000D01*
G37*
X176160000Y-64135000D02*
X176159000Y-64182000D01*
X176155000Y-64229000D01*
X176149000Y-64276000D01*
X176140000Y-64322000D01*
X176129000Y-64368000D01*
X176116000Y-64413000D01*
X176100000Y-64458000D01*
X176082000Y-64501000D01*
X176062000Y-64544000D01*
X176039000Y-64585000D01*
X176015000Y-64625000D01*
X175988000Y-64664000D01*
X175959000Y-64701000D01*
X175929000Y-64737000D01*
X175896000Y-64771000D01*
X175862000Y-64804000D01*
X175826000Y-64834000D01*
X175789000Y-64863000D01*
X175750000Y-64890000D01*
X175710000Y-64914000D01*
X175669000Y-64937000D01*
X175626000Y-64957000D01*
X175583000Y-64975000D01*
X175538000Y-64991000D01*
X175493000Y-65004000D01*
X175447000Y-65015000D01*
X175401000Y-65024000D01*
X175354000Y-65030000D01*
X175307000Y-65034000D01*
X175260000Y-65035000D01*
X175213000Y-65034000D01*
X175166000Y-65030000D01*
X175119000Y-65024000D01*
X175073000Y-65015000D01*
X175027000Y-65004000D01*
X174982000Y-64991000D01*
X174937000Y-64975000D01*
X174894000Y-64957000D01*
X174851000Y-64937000D01*
X174810000Y-64914000D01*
X174770000Y-64890000D01*
X174731000Y-64863000D01*
X174694000Y-64834000D01*
X174658000Y-64804000D01*
X174624000Y-64771000D01*
X174591000Y-64737000D01*
X174561000Y-64701000D01*
X174532000Y-64664000D01*
X174505000Y-64625000D01*
X174481000Y-64585000D01*
X174458000Y-64544000D01*
X174438000Y-64501000D01*
X174420000Y-64458000D01*
X174404000Y-64413000D01*
X174391000Y-64368000D01*
X174380000Y-64322000D01*
X174371000Y-64276000D01*
X174365000Y-64229000D01*
X174361000Y-64182000D01*
X174360000Y-64135000D01*
X174360000Y-61635000D01*
X176160000Y-61635000D01*
X176160000Y-64135000D01*
G36*
X176160000Y-64135000D02*
G01*
X176159000Y-64182000D01*
X176155000Y-64229000D01*
X176149000Y-64276000D01*
X176140000Y-64322000D01*
X176129000Y-64368000D01*
X176116000Y-64413000D01*
X176100000Y-64458000D01*
X176082000Y-64501000D01*
X176062000Y-64544000D01*
X176039000Y-64585000D01*
X176015000Y-64625000D01*
X175988000Y-64664000D01*
X175959000Y-64701000D01*
X175929000Y-64737000D01*
X175896000Y-64771000D01*
X175862000Y-64804000D01*
X175826000Y-64834000D01*
X175789000Y-64863000D01*
X175750000Y-64890000D01*
X175710000Y-64914000D01*
X175669000Y-64937000D01*
X175626000Y-64957000D01*
X175583000Y-64975000D01*
X175538000Y-64991000D01*
X175493000Y-65004000D01*
X175447000Y-65015000D01*
X175401000Y-65024000D01*
X175354000Y-65030000D01*
X175307000Y-65034000D01*
X175260000Y-65035000D01*
X175213000Y-65034000D01*
X175166000Y-65030000D01*
X175119000Y-65024000D01*
X175073000Y-65015000D01*
X175027000Y-65004000D01*
X174982000Y-64991000D01*
X174937000Y-64975000D01*
X174894000Y-64957000D01*
X174851000Y-64937000D01*
X174810000Y-64914000D01*
X174770000Y-64890000D01*
X174731000Y-64863000D01*
X174694000Y-64834000D01*
X174658000Y-64804000D01*
X174624000Y-64771000D01*
X174591000Y-64737000D01*
X174561000Y-64701000D01*
X174532000Y-64664000D01*
X174505000Y-64625000D01*
X174481000Y-64585000D01*
X174458000Y-64544000D01*
X174438000Y-64501000D01*
X174420000Y-64458000D01*
X174404000Y-64413000D01*
X174391000Y-64368000D01*
X174380000Y-64322000D01*
X174371000Y-64276000D01*
X174365000Y-64229000D01*
X174361000Y-64182000D01*
X174360000Y-64135000D01*
X174360000Y-61635000D01*
X176160000Y-61635000D01*
X176160000Y-64135000D01*
G37*
X181240000Y-64135000D02*
X181239000Y-64182000D01*
X181235000Y-64229000D01*
X181229000Y-64276000D01*
X181220000Y-64322000D01*
X181209000Y-64368000D01*
X181196000Y-64413000D01*
X181180000Y-64458000D01*
X181162000Y-64501000D01*
X181142000Y-64544000D01*
X181119000Y-64585000D01*
X181095000Y-64625000D01*
X181068000Y-64664000D01*
X181039000Y-64701000D01*
X181009000Y-64737000D01*
X180976000Y-64771000D01*
X180942000Y-64804000D01*
X180906000Y-64834000D01*
X180869000Y-64863000D01*
X180830000Y-64890000D01*
X180790000Y-64914000D01*
X180749000Y-64937000D01*
X180706000Y-64957000D01*
X180663000Y-64975000D01*
X180618000Y-64991000D01*
X180573000Y-65004000D01*
X180527000Y-65015000D01*
X180481000Y-65024000D01*
X180434000Y-65030000D01*
X180387000Y-65034000D01*
X180340000Y-65035000D01*
X180293000Y-65034000D01*
X180246000Y-65030000D01*
X180199000Y-65024000D01*
X180153000Y-65015000D01*
X180107000Y-65004000D01*
X180062000Y-64991000D01*
X180017000Y-64975000D01*
X179974000Y-64957000D01*
X179931000Y-64937000D01*
X179890000Y-64914000D01*
X179850000Y-64890000D01*
X179811000Y-64863000D01*
X179774000Y-64834000D01*
X179738000Y-64804000D01*
X179704000Y-64771000D01*
X179671000Y-64737000D01*
X179641000Y-64701000D01*
X179612000Y-64664000D01*
X179585000Y-64625000D01*
X179561000Y-64585000D01*
X179538000Y-64544000D01*
X179518000Y-64501000D01*
X179500000Y-64458000D01*
X179484000Y-64413000D01*
X179471000Y-64368000D01*
X179460000Y-64322000D01*
X179451000Y-64276000D01*
X179445000Y-64229000D01*
X179441000Y-64182000D01*
X179440000Y-64135000D01*
X179440000Y-61635000D01*
X181240000Y-61635000D01*
X181240000Y-64135000D01*
G36*
X181240000Y-64135000D02*
G01*
X181239000Y-64182000D01*
X181235000Y-64229000D01*
X181229000Y-64276000D01*
X181220000Y-64322000D01*
X181209000Y-64368000D01*
X181196000Y-64413000D01*
X181180000Y-64458000D01*
X181162000Y-64501000D01*
X181142000Y-64544000D01*
X181119000Y-64585000D01*
X181095000Y-64625000D01*
X181068000Y-64664000D01*
X181039000Y-64701000D01*
X181009000Y-64737000D01*
X180976000Y-64771000D01*
X180942000Y-64804000D01*
X180906000Y-64834000D01*
X180869000Y-64863000D01*
X180830000Y-64890000D01*
X180790000Y-64914000D01*
X180749000Y-64937000D01*
X180706000Y-64957000D01*
X180663000Y-64975000D01*
X180618000Y-64991000D01*
X180573000Y-65004000D01*
X180527000Y-65015000D01*
X180481000Y-65024000D01*
X180434000Y-65030000D01*
X180387000Y-65034000D01*
X180340000Y-65035000D01*
X180293000Y-65034000D01*
X180246000Y-65030000D01*
X180199000Y-65024000D01*
X180153000Y-65015000D01*
X180107000Y-65004000D01*
X180062000Y-64991000D01*
X180017000Y-64975000D01*
X179974000Y-64957000D01*
X179931000Y-64937000D01*
X179890000Y-64914000D01*
X179850000Y-64890000D01*
X179811000Y-64863000D01*
X179774000Y-64834000D01*
X179738000Y-64804000D01*
X179704000Y-64771000D01*
X179671000Y-64737000D01*
X179641000Y-64701000D01*
X179612000Y-64664000D01*
X179585000Y-64625000D01*
X179561000Y-64585000D01*
X179538000Y-64544000D01*
X179518000Y-64501000D01*
X179500000Y-64458000D01*
X179484000Y-64413000D01*
X179471000Y-64368000D01*
X179460000Y-64322000D01*
X179451000Y-64276000D01*
X179445000Y-64229000D01*
X179441000Y-64182000D01*
X179440000Y-64135000D01*
X179440000Y-61635000D01*
X181240000Y-61635000D01*
X181240000Y-64135000D01*
G37*
X183780000Y-64135000D02*
X183779000Y-64182000D01*
X183775000Y-64229000D01*
X183769000Y-64276000D01*
X183760000Y-64322000D01*
X183749000Y-64368000D01*
X183736000Y-64413000D01*
X183720000Y-64458000D01*
X183702000Y-64501000D01*
X183682000Y-64544000D01*
X183659000Y-64585000D01*
X183635000Y-64625000D01*
X183608000Y-64664000D01*
X183579000Y-64701000D01*
X183549000Y-64737000D01*
X183516000Y-64771000D01*
X183482000Y-64804000D01*
X183446000Y-64834000D01*
X183409000Y-64863000D01*
X183370000Y-64890000D01*
X183330000Y-64914000D01*
X183289000Y-64937000D01*
X183246000Y-64957000D01*
X183203000Y-64975000D01*
X183158000Y-64991000D01*
X183113000Y-65004000D01*
X183067000Y-65015000D01*
X183021000Y-65024000D01*
X182974000Y-65030000D01*
X182927000Y-65034000D01*
X182880000Y-65035000D01*
X182833000Y-65034000D01*
X182786000Y-65030000D01*
X182739000Y-65024000D01*
X182693000Y-65015000D01*
X182647000Y-65004000D01*
X182602000Y-64991000D01*
X182557000Y-64975000D01*
X182514000Y-64957000D01*
X182471000Y-64937000D01*
X182430000Y-64914000D01*
X182390000Y-64890000D01*
X182351000Y-64863000D01*
X182314000Y-64834000D01*
X182278000Y-64804000D01*
X182244000Y-64771000D01*
X182211000Y-64737000D01*
X182181000Y-64701000D01*
X182152000Y-64664000D01*
X182125000Y-64625000D01*
X182101000Y-64585000D01*
X182078000Y-64544000D01*
X182058000Y-64501000D01*
X182040000Y-64458000D01*
X182024000Y-64413000D01*
X182011000Y-64368000D01*
X182000000Y-64322000D01*
X181991000Y-64276000D01*
X181985000Y-64229000D01*
X181981000Y-64182000D01*
X181980000Y-64135000D01*
X181980000Y-61635000D01*
X183780000Y-61635000D01*
X183780000Y-64135000D01*
G36*
X183780000Y-64135000D02*
G01*
X183779000Y-64182000D01*
X183775000Y-64229000D01*
X183769000Y-64276000D01*
X183760000Y-64322000D01*
X183749000Y-64368000D01*
X183736000Y-64413000D01*
X183720000Y-64458000D01*
X183702000Y-64501000D01*
X183682000Y-64544000D01*
X183659000Y-64585000D01*
X183635000Y-64625000D01*
X183608000Y-64664000D01*
X183579000Y-64701000D01*
X183549000Y-64737000D01*
X183516000Y-64771000D01*
X183482000Y-64804000D01*
X183446000Y-64834000D01*
X183409000Y-64863000D01*
X183370000Y-64890000D01*
X183330000Y-64914000D01*
X183289000Y-64937000D01*
X183246000Y-64957000D01*
X183203000Y-64975000D01*
X183158000Y-64991000D01*
X183113000Y-65004000D01*
X183067000Y-65015000D01*
X183021000Y-65024000D01*
X182974000Y-65030000D01*
X182927000Y-65034000D01*
X182880000Y-65035000D01*
X182833000Y-65034000D01*
X182786000Y-65030000D01*
X182739000Y-65024000D01*
X182693000Y-65015000D01*
X182647000Y-65004000D01*
X182602000Y-64991000D01*
X182557000Y-64975000D01*
X182514000Y-64957000D01*
X182471000Y-64937000D01*
X182430000Y-64914000D01*
X182390000Y-64890000D01*
X182351000Y-64863000D01*
X182314000Y-64834000D01*
X182278000Y-64804000D01*
X182244000Y-64771000D01*
X182211000Y-64737000D01*
X182181000Y-64701000D01*
X182152000Y-64664000D01*
X182125000Y-64625000D01*
X182101000Y-64585000D01*
X182078000Y-64544000D01*
X182058000Y-64501000D01*
X182040000Y-64458000D01*
X182024000Y-64413000D01*
X182011000Y-64368000D01*
X182000000Y-64322000D01*
X181991000Y-64276000D01*
X181985000Y-64229000D01*
X181981000Y-64182000D01*
X181980000Y-64135000D01*
X181980000Y-61635000D01*
X183780000Y-61635000D01*
X183780000Y-64135000D01*
G37*
%TD*%
D11*
%TO.C,SW2*%
X182245000Y-119380000D03*
D12*
X182245000Y-114300000D03*
%TD*%
D13*
%TO.C,H3*%
X135890000Y-126365000D03*
%TD*%
%TO.C,H4*%
X182245000Y-126365000D03*
%TD*%
%TO.C,H2*%
X182245000Y-57150000D03*
%TD*%
%TO.C,H1*%
X135890000Y-57150000D03*
%TD*%
D14*
%TO.C,U2*%
X171250000Y-70525000D03*
X173750000Y-70525000D03*
X176250000Y-70525000D03*
X183050000Y-72025000D03*
X183050000Y-74025000D03*
X179750000Y-73025000D03*
D15*
X179720000Y-75450000D03*
X179720000Y-70600000D03*
D16*
X182750000Y-75750000D03*
X182750000Y-70300000D03*
%TD*%
D17*
%TO.C,U1*%
X160020000Y-95250000D03*
X157480000Y-95250000D03*
X160020000Y-92710000D03*
X157480000Y-92710000D03*
X160020000Y-90170000D03*
X157480000Y-90170000D03*
X160020000Y-87630000D03*
D18*
X157480000Y-87630000D03*
%TD*%
D12*
%TO.C,SW1*%
X182245000Y-104550000D03*
D11*
X182245000Y-109630000D03*
%TD*%
D19*
%TO.C,R2*%
X141605000Y-105693800D03*
X141605000Y-113893799D03*
X146605000Y-105693800D03*
X146605000Y-113893799D03*
%TD*%
D12*
%TO.C,R1*%
X147730000Y-98425000D03*
D11*
X152810000Y-98425000D03*
%TD*%
D20*
%TO.C,Q1*%
X139700000Y-97155000D03*
X139700000Y-94615000D03*
D21*
X139700000Y-92075000D03*
%TD*%
D19*
%TO.C,BT2*%
X160894399Y-113895199D03*
X160894399Y-105695200D03*
X155894399Y-113895199D03*
X155894399Y-105695200D03*
%TD*%
%TO.C,BT1*%
X175180000Y-113895199D03*
X175180000Y-105695200D03*
X170180000Y-113895199D03*
X170180000Y-105695200D03*
%TD*%
M02*
